<svg version="1.1" xmlns="http://www.w3.org/2000/svg" viewBox="0 0 250 250"><desc>Created with Snap</desc><defs></defs><g transform="matrix(0.0404,0,0,0.0404,43.8714,139.3275)"><g transform="matrix(14.2612,0,0,14.2612,-843.1472,-3207.0515)">
<g id="gSl0j255i61qt">
	<g>
		<g>
			<g>
				<path d="M200,395.51904c-107.80957,0-195.51855-87.70996-195.51855-195.51953S92.19043,4.48096,200,4.48096
					s195.51855,87.70898,195.51855,195.51855S307.80957,395.51904,200,395.51904z M200,11.48096
					c-103.94922,0-188.51855,84.56934-188.51855,188.51855c0,103.9502,84.56934,188.51953,188.51855,188.51953
					s188.51855-84.56934,188.51855-188.51953C388.51855,96.05029,303.94922,11.48096,200,11.48096z" style="" fill="#85421e"></path>
			</g>
			<g>
				<g>
					<path d="M383.76721,205.51025c-0.33228-1.2666-1.02942-1.63965-1.61755-1.78833
						c-1.09204-0.29761-2.13721-0.41382-3.22583-0.11499c-2.04089,0.54517-4.00696-0.90479-6.06177,0.12695
						c-0.02783,0.02319-0.0304,0.22559-0.0426,0.35376c-0.69153-0.00488-1.27356,1.16724-1.30273,2.63232
						c-0.01904,1.46191,0.51416,2.68848,1.2124,2.70557l-0.021,0.33203c0.31616,0.26147,0.65894,0.1084,0.99646,0.01416
						c-0.07959-0.00317-0.15417-0.0061-0.23462-0.00903c3.01172,0.03345,6.22473,0.97119,9.08228-1.3667
						c0.37976-0.32129,0.74902-0.698,1.16309-0.93677c0.29211,0.09058,0.54321-0.34644,0.56213-1.00635
						c0.01404-0.64062-0.20459-1.2356-0.49976-1.3335L383.76721,205.51025z" style="" fill="#85421e"></path>
				</g>
				<g>
					<path d="M383.17041,215.9917c-0.26746-1.28442-0.94446-1.69629-1.52405-1.87817
						c-1.07495-0.35864-2.11255-0.53369-3.21448-0.29663c-2.06482,0.42944-3.95447-1.12964-6.05786-0.21509
						c-0.02893,0.02148-0.04163,0.22363-0.06018,0.35083c-0.69019-0.04395-1.3302,1.09375-1.43311,2.55493
						c-0.07202,1.46094,0.28149,2.70361,1.01843,2.76489l-0.0376,0.33057c0.30237,0.2793,0.6521,0.14551,0.99377,0.07056
						c-0.07922-0.00757-0.15369-0.01465-0.23376-0.02222c3.02625,0.2063,6.11414,1.31836,9.18323-0.84595
						c0.40771-0.29834,0.7865-0.65454,1.21472-0.86938c0.28699,0.10693,0.55969-0.31543,0.6123-0.97363
						c0.04651-0.6394-0.14148-1.24634-0.43115-1.3606L383.17041,215.9917z" style="" fill="#85421e"></path>
				</g>
				<g>
					<path d="M381.98706,226.42651c-0.20166-1.29883-0.85632-1.74902-1.42554-1.96362
						c-1.05457-0.41943-2.08105-0.65356-3.19263-0.479c-2.08228,0.31152-3.88916-1.35352-6.03418-0.55933
						c-0.03003,0.02002-0.05286,0.22095-0.07788,0.34692c-0.68848-0.08325-1.37769,1.01807-1.56299,2.47046
						c-0.25134,1.43848,0.11328,2.71289,0.82275,2.81226l-0.0542,0.32837c0.2876,0.29639,0.64319,0.18262,0.98792,0.1272
						c-0.07874-0.01221-0.15259-0.02344-0.23206-0.03564c3.00854,0.37891,6.03271,1.6665,9.20435-0.32227
						c0.42603-0.27441,0.84973-0.60449,1.29749-0.79346c0.27673,0.12256,0.60144-0.2793,0.67798-0.93555
						c0.07898-0.63623-0.07776-1.25366-0.36108-1.38428L381.98706,226.42651z" style="" fill="#85421e"></path>
				</g>
				<g>
					<path d="M380.21814,236.78076c-0.13525-1.30981-0.7655-1.79736-1.32239-2.04419
						c-1.03064-0.47949-2.04272-0.77197-3.1604-0.66113c-2.09253,0.19263-3.81104-1.57471-5.99048-0.90356
						c-0.03088,0.01831-0.06384,0.21802-0.09497,0.34253c-0.69153-0.12451-1.39441,0.94507-1.745,2.36719
						c-0.32275,1.42407-0.02295,2.71924,0.67944,2.85913l-0.07043,0.3252c0.27197,0.31274,0.6322,0.21948,0.97864,0.18359
						c-0.07788-0.0166-0.15088-0.03223-0.22961-0.04883c2.98108,0.55054,5.9314,2.01099,9.19482,0.20337
						c0.43872-0.25024,0.87805-0.55615,1.33411-0.71948c0.27026,0.13843,0.60486-0.24683,0.75513-0.89038
						c0.15308-0.62305,0.01453-1.25195-0.25928-1.39844L380.21814,236.78076z" style="" fill="#85421e"></path>
				</g>
				<g>
					<path d="M377.81665,247.0083c0.00183-1.29956-0.62451-1.82886-1.1637-2.10669
						c-1.00342-0.53857-1.99768-0.88867-3.11755-0.84155c-2.09595,0.073-3.72034-1.79248-5.92688-1.24585
						c-0.03186,0.0166-0.07458,0.21436-0.11194,0.33716c-0.66589-0.15942-1.53027,0.84106-1.92224,2.25122
						c-0.39282,1.40625-0.15881,2.71924,0.53418,2.89941l-0.08655,0.32129c0.25537,0.32837,0.61902,0.25537,0.96619,0.2395
						c-0.07678-0.02124-0.1488-0.04077-0.22644-0.06201c2.9436,0.7207,5.8103,2.3501,9.15442,0.72778
						c0.45007-0.2251,0.90344-0.5061,1.36633-0.64355c0.26233,0.15381,0.61548-0.2124,0.79773-0.84766
						c0.17261-0.61768,0.10706-1.2439-0.15637-1.40527L377.81665,247.0083z" style="" fill="#85421e"></path>
				</g>
				<g>
					<path d="M374.82727,257.07935c0.05615-1.3042-0.50244-1.85718-1.02295-2.16479
						c-0.95996-0.59204-1.92847-0.99756-3.06189-1.01904c-2.12036-0.05518-3.57751-1.99292-5.85559-1.58789
						c-0.03369,0.0144-0.09607,0.20679-0.14575,0.32544c-0.66235-0.19946-1.5686,0.75439-2.03113,2.14307
						c-0.46167,1.38525-0.29419,2.71265,0.38708,2.93237l-0.10229,0.31665c0.23792,0.34302,0.60388,0.29077,0.95056,0.29443
						c-0.07556-0.02539-0.14624-0.04907-0.22241-0.07495c2.89624,0.88892,5.6698,2.68213,9.08362,1.24878
						c0.45972-0.19971,0.92554-0.45508,1.3938-0.56641c0.25354,0.16895,0.6239-0.17749,0.83765-0.80298
						c0.20312-0.60815,0.16943-1.23853-0.08484-1.41528L374.82727,257.07935z" style="" fill="#85421e"></path>
				</g>
				<g>
					<path d="M371.27405,266.96484c0.1217-1.30249-0.40686-1.8877-0.90979-2.22534c-0.92627-0.64697-1.87073-1.10815-2.99866-1.1936
						c-2.10901-0.17529-3.46326-2.19824-5.75244-1.92139c-0.0343,0.01245-0.10608,0.20166-0.1615,0.31763
						c-0.64966-0.2373-1.59985,0.66675-2.12988,2.03125c-0.52893,1.36108-0.42871,2.69971,0.23877,2.95801l-0.1178,0.31128
						c0.21826,0.35645,0.58704,0.32568,0.93164,0.34863c-0.07385-0.02954-0.14307-0.05737-0.21765-0.0874
						c2.83948,1.05347,5.51086,3.00537,8.98279,1.76343c0.46802-0.17407,0.94482-0.40332,1.41675-0.48828
						c0.24414,0.18359,0.63049-0.14258,0.87488-0.75635c0.23303-0.59741,0.23132-1.23047-0.01306-1.42188L371.27405,266.96484z" style="" fill="#85421e"></path>
				</g>
				<g>
					<path d="M367.16992,276.63379c0.18689-1.29761-0.30994-1.91333-0.79358-2.27979
						c-0.88977-0.7002-1.80688-1.21509-2.92554-1.36401c-2.09094-0.29419-3.33777-2.39673-5.63074-2.24805
						c-0.03467,0.01074-0.1156,0.19604-0.17651,0.30933c-0.63489-0.27441-1.6261,0.57788-2.22192,1.91528
						c-0.573,1.34424-0.60754,2.65869,0.04248,2.9541l-0.14783,0.29785c0.1897,0.36475,0.56433,0.35742,0.91162,0.40234
						c-0.07214-0.03394-0.13977-0.06567-0.21252-0.09985c2.77002,1.21265,5.32739,3.31543,8.91321,2.29883
						c0.47461-0.14795,0.96094-0.35107,1.43506-0.40942c0.23364,0.19751,0.63477-0.10718,0.90918-0.7085
						c0.26221-0.58521,0.29248-1.21899,0.05872-1.42432L367.16992,276.63379z" style="" fill="#85421e"></path>
				</g>
				<g>
					<path d="M362.5293,286.05688c0.25171-1.28955-0.21155-1.93433-0.67456-2.32837c-0.8501-0.75098-1.73706-1.31787-2.8429-1.52979
						c-2.06604-0.41113-3.20129-2.58716-5.49048-2.56592c-0.03503,0.00854-0.125,0.18994-0.19128,0.30005
						c-0.61804-0.3103-1.64709,0.48877-2.30713,1.7959c-0.71289,1.27417-0.80835,2.59277-0.17188,2.92725l-0.16211,0.29077
						c0.17053,0.37598,0.54358,0.38916,0.88684,0.45361c-0.07007-0.03809-0.13574-0.07373-0.20642-0.11206
						c2.70361,1.37354,5.11438,3.60718,8.77209,2.80811c0.4939-0.11426,1.00439-0.28174,1.48962-0.30811
						c0.22449,0.21191,0.64661-0.06689,0.94666-0.65576c0.29065-0.57153,0.35278-1.20483,0.13049-1.42358L362.5293,286.05688z" style="" fill="#85421e"></path>
				</g>
				<g>
					<path d="M357.36877,295.20557c0.3158-1.27832-0.11255-1.94995-0.55322-2.37036c-0.80786-0.79956-1.6615-1.41699-2.7511-1.69019
						c-2.03467-0.52612-3.05432-2.77002-5.33276-2.87476c-0.0354,0.00684-0.13391,0.18359-0.20544,0.29028
						c-0.60498-0.34863-1.63782,0.41455-2.44507,1.63696c-0.78333,1.23267-0.93738,2.5542-0.32361,2.9231l-0.17578,0.28247
						c0.15051,0.38647,0.521,0.42017,0.85913,0.50342c-0.06775-0.04199-0.13123-0.0813-0.19958-0.12354
						c2.61975,1.5249,4.90442,3.89624,8.58374,3.29565c0.49707-0.08716,1.01343-0.22705,1.49756-0.22705
						c0.20764,0.22168,0.65234-0.02808,1.01025-0.58325c0.35254-0.53589,0.44336-1.16895,0.23157-1.40161L357.36877,295.20557z" style="" fill="#85421e"></path>
				</g>
				<g>
					<path d="M351.64966,304.01489c0.42981-1.22974,0.04883-1.91895-0.37366-2.36816
						c-0.76282-0.8457-1.58069-1.51123-2.65051-1.84473c-1.99695-0.63843-2.89746-2.9436-5.1582-3.1731
						c-0.03284,0.00659-0.14783,0.1731-0.22998,0.27222c-0.57898-0.37866-1.72339,0.27661-2.56665,1.47388
						c-0.84119,1.19409-1.0614,2.51123-0.46973,2.91431l-0.18921,0.27393c0.13013,0.39575,0.49683,0.44946,0.82874,0.55127
						c-0.06519-0.0459-0.12634-0.08862-0.19226-0.13477c2.52783,1.67114,4.67896,4.17236,8.3689,3.77002
						c0.49878-0.06055,1.01941-0.17261,1.5011-0.14624c0.19519,0.23364,0.65015,0.00732,1.03442-0.53003
						c0.36938-0.52393,0.5177-1.13623,0.32397-1.3772L351.64966,304.01489z" style="" fill="#85421e"></path>
				</g>
				<g>
					<path d="M345.44336,312.48608c0.48828-1.21143,0.14746-1.92114-0.23926-2.38647
						c-0.7052-0.88159-1.48071-1.59009-2.53967-1.99146c-1.97595-0.76489-2.6991-3.08423-4.97717-3.46753
						c-0.0365,0.0022-0.15942,0.16284-0.24585,0.2583c-0.55627-0.41113-1.72754,0.18506-2.62683,1.34082
						c-0.89709,1.15308-1.18323,2.4624-0.6156,2.89844l-0.20203,0.26465c0.10913,0.40381,0.47095,0.47729,0.79578,0.59717
						c-0.0625-0.04932-0.12109-0.0957-0.1842-0.14551c2.42773,1.81177,4.43823,4.43506,8.12793,4.22974
						c0.49915-0.03394,1.02271-0.11841,1.50024-0.06592c0.18213,0.24463,0.64624,0.04224,1.05591-0.47583
						c0.39417-0.50537,0.573-1.11157,0.39282-1.36377L345.44336,312.48608z" style="" fill="#85421e"></path>
				</g>
				<g>
					<path d="M338.77722,320.59912c0.54797-1.18896,0.24573-1.91895-0.11487-2.40625
						c-0.65576-0.92188-1.3905-1.67383-2.42273-2.13281c-1.92529-0.87256-2.52515-3.23755-4.77039-3.74316
						c-0.03638,0.00024-0.16687,0.15479-0.25769,0.24609c-0.53198-0.44214-1.72681,0.09399-2.67993,1.20605
						c-0.94653,1.11304-1.30579,2.40479-0.77649,2.8606l-0.22644,0.2439c0.07886,0.40283,0.44092,0.50146,0.76172,0.64233
						l-0.17578-0.15552c2.30762,1.93433,4.20007,4.69849,7.88879,4.69751c0.49805-0.00732,1.02283-0.06421,1.495,0.01392
						c0.16846,0.25513,0.64026,0.07666,1.07446-0.42114c0.41809-0.48584,0.62708-1.08423,0.46082-1.34668L338.77722,320.59912z" style="" fill="#85421e"></path>
				</g>
				<g>
					<path d="M331.67212,328.33057c0.60657-1.16357,0.34399-1.91187,0.01074-2.41968
						c-0.60413-0.95923-1.29565-1.75244-2.2981-2.26709c-1.86877-0.97681-2.34277-3.3811-4.54858-4.00659
						c-0.03613-0.00146-0.17383,0.14673-0.2688,0.2334c-0.50598-0.47144-1.72131,0.00366-2.72607,1.06934
						c-1.00916,1.0564-1.49976,2.2666-0.97473,2.77466l-0.23779,0.23267c0.05737,0.40845,0.41223,0.52637,0.72375,0.68457
						l-0.16663-0.16553c2.20935,2.07764,3.89465,4.89697,7.63391,5.16235c0.50928,0.03247,1.04321,0.01245,1.50427,0.11133
						c0.1543,0.26465,0.63269,0.1106,1.09021-0.36572c0.4408-0.46533,0.67981-1.0542,0.5282-1.32642L331.67212,328.33057z" style="" fill="#85421e"></path>
				</g>
				<g>
					<path d="M324.14954,335.65723c0.66406-1.1355,0.44202-1.89941,0.13733-2.42651
						c-0.55042-0.99365-1.19629-1.82544-2.16602-2.39429c-1.80652-1.07715-2.15247-3.51392-4.31226-4.25635
						c-0.03589-0.00342-0.18042,0.13818-0.2793,0.22021c-0.49219-0.51465-1.68018-0.05176-2.79626,0.89697
						c-1.10034,0.96094-1.62122,2.18384-1.13538,2.71021l-0.24866,0.22119c0.03564,0.4126,0.3822,0.54932,0.68359,0.72412
						l-0.15698-0.17456c2.08704,2.19873,3.61389,5.11401,7.31787,5.57446c0.50208,0.0564,1.0376,0.06787,1.50269,0.20435
						c0.13696,0.27075,0.6344,0.15649,1.13477-0.27466c0.47766-0.42725,0.73523-1.01733,0.60217-1.29443L324.14954,335.65723z" style="" fill="#85421e"></path>
				</g>
				<g>
					<path d="M316.20239,342.52173c0.76526-1.0498,0.56445-1.85254,0.29419-2.39111
						c-0.49475-1.02515-1.09302-1.89282-2.02686-2.51367c-1.73901-1.17383-1.95447-3.63647-4.06226-4.49243
						c-0.0354-0.00537-0.18665,0.12915-0.28918,0.2063c-0.43921-0.51343-1.73083-0.21655-2.87598,0.69629
						c-1.14465,0.90747-1.72717,2.10767-1.27222,2.66064l-0.25891,0.20923c0.01367,0.41577,0.35083,0.57056,0.64111,0.76147
						c-0.0498-0.06226-0.09644-0.12036-0.14673-0.18335c1.95813,2.31299,3.3208,5.31543,6.97925,5.96851
						c0.49622,0.08228,1.02808,0.12134,1.48328,0.28223c0.12183,0.27881,0.62268,0.18994,1.14307-0.2168
						c0.50244-0.39819,0.81714-0.94312,0.69897-1.22876L316.20239,342.52173z" style="" fill="#85421e"></path>
				</g>
				<g>
					<path d="M307.8678,348.9104c0.81006-1.02368,0.68237-1.7998,0.44177-2.35474c-0.42944-1.04321-0.9751-1.94043-1.87964-2.62329
						c-1.68311-1.28931-1.7251-3.71533-3.80603-4.72412c-0.03564-0.00806-0.1991,0.11133-0.30896,0.17822
						c-0.41882-0.55054-1.71191-0.30908-2.90125,0.54541c-1.1864,0.85205-1.82983,2.02612-1.40723,2.604l-0.26855,0.19653
						c-0.00879,0.41772,0.31812,0.59009,0.59644,0.79639c-0.04614-0.0647-0.08936-0.12573-0.13599-0.19116
						c1.82263,2.41968,3.01599,5.50024,6.6189,6.34229c0.48901,0.10815,1.01587,0.17456,1.45984,0.35913
						c0.1062,0.28589,0.60901,0.22241,1.14856-0.15869c0.521-0.37354,0.86328-0.90405,0.76111-1.19653L307.8678,348.9104z" style="" fill="#85421e"></path>
				</g>
				<g>
					<path d="M299.19104,354.82617c0.86133-0.98511,0.77649-1.76978,0.56726-2.33862
						c-0.37061-1.06787-0.86487-1.99561-1.72742-2.72632c-1.60413-1.37866-1.51477-3.81396-3.52966-4.9314
						c-0.03503-0.01001-0.20386,0.10132-0.31677,0.16309c-0.38672-0.57349-1.68555-0.39697-2.91418,0.39966
						c-1.22571,0.79468-1.92908,1.9397-1.54016,2.54028l-0.28528,0.1709c-0.0376,0.4082,0.28247,0.60498,0.5509,0.83057
						c-0.04236-0.06738-0.08215-0.13062-0.125-0.19873c1.67578,2.51001,2.70947,5.68286,6.24451,6.70679
						c0.48047,0.13306,1.00085,0.22656,1.4325,0.43433c0.08997,0.29199,0.59363,0.25415,1.15088-0.10059
						c0.53857-0.3479,0.90784-0.8623,0.82214-1.16064L299.19104,354.82617z" style="" fill="#85421e"></path>
				</g>
				<g>
					<path d="M290.19775,360.24976c0.91089-0.94385,0.86938-1.73462,0.69238-2.31543
						c-0.31018-1.0896-0.75098-2.04468-1.56909-2.82104c-1.52026-1.46338-1.29834-3.90063-3.24121-5.1228
						c-0.0343-0.01172-0.20837,0.09131-0.32397,0.14746c-0.35327-0.59448-1.65454-0.48291-2.92004,0.25391
						c-1.24866,0.76025-2.0686,1.76562-1.70593,2.40381l-0.29407,0.15552c-0.05994,0.40723,0.24768,0.62061,0.50244,0.86035
						c-0.03857-0.06982-0.07458-0.13525-0.11353-0.20557c1.53674,2.61499,2.3606,5.79224,5.87891,7.10449
						c0.47156,0.15942,0.9834,0.27856,1.40161,0.50903c0.07349,0.29736,0.57654,0.28491,1.15051-0.04248
						c0.55481-0.32129,0.95044-0.81812,0.88147-1.12183L290.19775,360.24976z" style="" fill="#85421e"></path>
				</g>
				<g>
					<path d="M280.91418,365.16284c0.95862-0.89966,0.96106-1.69434,0.81714-2.2854
						c-0.24841-1.10742-0.63428-2.08716-1.40527-2.90649c-1.43164-1.54346-1.07629-3.9751-2.94165-5.2981
						c-0.03357-0.01343-0.2124,0.0813-0.33044,0.13184c-0.3219-0.62061-1.61194-0.55225-2.9259,0.09253
						c-1.32825,0.60669-2.17383,1.62891-1.85583,2.27075l-0.30127,0.14111c-0.08228,0.40503,0.21191,0.63428,0.45203,0.88745
						c-0.03442-0.07178-0.06665-0.13916-0.10144-0.21167c1.38391,2.69775,2.02661,5.92285,5.45557,7.41553
						c0.46667,0.19653,0.97803,0.35938,1.38635,0.62207c0.05139,0.29077,0.57373,0.34717,1.16003,0.04224
						c0.56982-0.29395,0.99109-0.77173,0.93921-1.07959L280.91418,365.16284z" style="" fill="#85421e"></path>
				</g>
				<g>
					<path d="M271.36353,369.53784c1.01331-0.83179,1.05371-1.64307,0.94543-2.23755
						c-0.18542-1.12231-0.51477-2.12305-1.23645-2.98291c-1.3385-1.61841-0.84949-4.03687-2.63196-5.45605
						c-0.03259-0.01514-0.21582,0.07056-0.33606,0.11548c-0.14075-0.31592-0.53662-0.47778-1.06238-0.48486
						c-0.53223-0.02173-1.20337,0.08936-1.88318,0.36279c-1.35608,0.54102-2.25513,1.52295-1.97461,2.18188l-0.30786,0.12598
						c-0.10461,0.40186,0.17542,0.64624,0.40015,0.91162c-0.03015-0.07349-0.05847-0.14258-0.08911-0.21704
						c1.22632,2.77197,1.68481,6.03418,5.01514,7.70239c0.45361,0.22046,0.95349,0.40942,1.34546,0.69312
						c0.03809,0.30151,0.54456,0.35913,1.15991,0.11841c0.59424-0.24072,1.05518-0.66284,1.01685-0.98315
						C271.60681,369.44385,271.48499,369.49048,271.36353,369.53784z" style="" fill="#85421e"></path>
				</g>
				<g>
					<path d="M261.55884,373.31128c1.06885-0.74707,1.16626-1.52563,1.09241-2.12524
						c-0.12109-1.13208-0.39294-2.15186-1.06287-3.04883c-1.24683-1.70215-0.61292-4.06982-2.31689-5.6062
						c-0.03198-0.01807-0.22278,0.04907-0.34729,0.08179c-0.24622-0.64648-1.55664-0.78687-2.94104-0.31128
						c-1.38098,0.47412-2.33179,1.41235-2.08972,2.08594l-0.3136,0.11108c-0.12695,0.39697,0.13806,0.65552,0.34692,0.93286
						c-0.02588-0.07544-0.05029-0.146-0.07642-0.22192c1.06445,2.83691,1.33643,6.12573,4.55896,7.96387
						c0.43933,0.24341,0.92664,0.45801,1.3009,0.76172c0.02087,0.30371,0.52197,0.38721,1.14856,0.17725
						c0.60669-0.20801,1.08606-0.61719,1.07092-0.92627L261.55884,373.31128z" style="" fill="#85421e"></path>
				</g>
				<g>
					<path d="M251.55786,376.52563c1.1073-0.6936,1.24866-1.46802,1.20911-2.07202
						c-0.05273-1.12744-0.26404-2.15649-0.88525-3.10327c-1.14954-1.78003-0.37231-4.08154-1.99048-5.73022
						c-0.03076-0.01978-0.22461,0.03809-0.35059,0.06445c-0.20862-0.65942-1.5061-0.86548-2.91223-0.45874
						c-1.40271,0.40552-2.40332,1.29688-2.20044,1.9834l-0.31885,0.09521c-0.14893,0.39111,0.10034,0.66309,0.29272,0.95093
						c-0.02161-0.07666-0.04187-0.14844-0.0636-0.22583c0.89917,2.89258,0.98303,6.19702,4.08923,8.19897
						c0.42383,0.26587,0.89722,0.50513,1.25281,0.82812c0.00354,0.30493,0.49817,0.41382,1.1344,0.23535
						c0.61621-0.17749,1.11719-0.56299,1.11963-0.8728L251.55786,376.52563z" style="" fill="#85421e"></path>
				</g>
				<g>
					<path d="M241.39172,379.16992c1.14331-0.63794,1.32837-1.40552,1.32349-2.01172
						c0.01172-1.13086-0.14026-2.1709-0.70544-3.14966c-1.04419-1.83862-0.13831-4.10229-1.6571-5.83325
						c-0.02954-0.02124-0.22607,0.02686-0.35303,0.04712c-0.17041-0.67041-1.4519-0.94141-2.87659-0.60498
						c-1.42151,0.33447-2.46875,1.18018-2.30688,1.87134l-0.32666,0.06274c-0.17334,0.37134,0.06152,0.66455,0.23792,0.96777
						c-0.01709-0.07788-0.0332-0.15063-0.05054-0.22925c0.72827,2.92407,0.6311,6.27124,3.61182,8.42456
						c0.40723,0.28735,0.86536,0.55054,1.20142,0.8916c-0.01392,0.30542,0.4729,0.43921,1.11731,0.29272
						c0.62427-0.14648,1.14563-0.50659,1.16565-0.81665L241.39172,379.16992z" style="" fill="#85421e"></path>
				</g>
				<g>
					<path d="M231.09326,381.23511c1.17639-0.57983,1.40466-1.33813,1.43433-1.94458
						c0.07629-1.13013-0.01575-2.17798-0.52344-3.1853c-0.93616-1.89136,0.09631-4.10962-1.31909-5.91699
						c-0.02832-0.02246-0.22705,0.01562-0.35486,0.0293c-0.13159-0.67896-1.39392-1.01416-2.83386-0.74878
						c-1.43213,0.2915-2.54138,0.97827-2.41699,1.69263l-0.32947,0.04614c-0.19409,0.36255,0.02332,0.66772,0.18201,0.97974
						c-0.01257-0.07886-0.02441-0.15259-0.03723-0.23193c0.56177,2.97656,0.26538,6.25757,3.13049,8.66772
						c0.38977,0.30786,0.83154,0.59424,1.14709,0.95215c-0.03125,0.30469,0.44641,0.46313,1.09729,0.34912
						c0.63086-0.11475,1.17126-0.44849,1.20898-0.75732L231.09326,381.23511z" style="" fill="#85421e"></path>
				</g>
				<g>
					<path d="M220.69556,382.71533c1.20642-0.52002,1.47729-1.26636,1.5415-1.87109
						c0.14056-1.12573,0.10846-2.17798-0.34052-3.21021c-0.82605-1.93774,0.33057-4.10327-0.97852-5.98096
						c-0.02692-0.02417-0.22736,0.00391-0.35559,0.01147c-0.09253-0.68555-1.33289-1.08398-2.78461-0.89087
						c-1.45386,0.13867-2.59772,0.7937-2.51453,1.5105l-0.33142,0.02954c-0.21442,0.35254-0.01477,0.66821,0.12592,0.98804
						c-0.00818-0.0791-0.01581-0.15356-0.02405-0.2334c0.3916,3.00708-0.09192,6.25659,2.63159,8.82983
						c0.3728,0.34399,0.79901,0.67163,1.0946,1.05786c-0.04822,0.30615,0.41907,0.48633,1.07471,0.40649
						c0.6358-0.08276,1.19379-0.38892,1.24902-0.6958L220.69556,382.71533z" style="" fill="#85421e"></path>
				</g>
				<g>
					<path d="M210.23242,383.60718c1.23315-0.45825,1.54584-1.19043,1.64423-1.79102
						c0.2041-1.11768,0.23175-2.17065-0.15759-3.22485c-0.71442-1.97778,0.56281-4.08325-0.63708-6.02539
						c-0.02557-0.02539-0.22717-0.00732-0.35559-0.00635c-0.05463-0.70923-1.26642-1.10571-2.73145-1.07446
						c-1.46075,0.04248-2.63922,0.65576-2.59692,1.37085l-0.33264,0.01294c-0.23401,0.34106-0.05243,0.66675,0.06995,0.99341
						c-0.00366-0.07959-0.00714-0.1543-0.0108-0.23462c0.22101,3.02393-0.44482,6.24487,2.12793,8.95386
						c0.35266,0.36255,0.75946,0.71143,1.03265,1.1123c-0.06573,0.29614,0.39136,0.52393,1.05145,0.50879
						c0.63971-0.03564,1.21326-0.32373,1.28595-0.62427L210.23242,383.60718z" style="" fill="#85421e"></path>
				</g>
				<g>
					<path d="M199.73792,383.89819c1.25647-0.36938,1.60968-1.10327,1.7417-1.69263c0.2666-1.10596,0.35352-2.15625,0.02417-3.22876
						c-0.60193-2.01147,0.79181-4.0498-0.29688-6.05029c-0.02411-0.02661-0.22644-0.0188-0.35474-0.02441
						c-0.00647-0.34546-0.30823-0.64868-0.78998-0.85962c-0.48199-0.22974-1.14398-0.38794-1.8772-0.40186
						c-1.46106-0.03076-2.6723,0.52222-2.67023,1.23828l-0.33289-0.00391c-0.25281,0.3291-0.08984,0.66333,0.01398,0.99561
						c0.00085-0.07959,0.00159-0.1543,0.00244-0.23486c0.05084,3.03101-0.79498,6.21362,1.62195,9.04907
						c0.33173,0.37988,0.71838,0.74902,0.96863,1.16309c-0.08221,0.29248,0.36139,0.54321,1.02142,0.56152
						c0.64056,0.01074,1.22906-0.19946,1.31848-0.50757C199.99847,383.90796,199.86823,383.90088,199.73792,383.89819z" style="" fill="#85421e"></path>
				</g>
				<g>
					<path d="M189.24457,383.56763c1.27368-0.25952,1.66669-0.95801,1.83215-1.55078
						c0.32837-1.09082,0.47412-2.13501,0.20551-3.22266c-0.4881-2.03857,1.01819-4.00366,0.0434-6.05591
						c-0.02246-0.0293-0.22528-0.02563-0.35254-0.04858c0.02435-0.69141-1.12903-1.33374-2.5899-1.43823
						c-1.45715-0.10449-2.69788,0.38672-2.73627,1.10156l-0.33221-0.02075c-0.27106,0.31567-0.12714,0.65771-0.04218,0.99463
						c0.00531-0.07959,0.01025-0.15405,0.01562-0.23413c-0.12024,3.02808-1.14514,6.16211,1.10962,9.11523
						c0.31006,0.39624,0.6756,0.78442,0.90228,1.21045c-0.09863,0.28784,0.33044,0.56079,0.98889,0.61255
						c0.63928,0.04614,1.23962-0.14307,1.34558-0.43335L189.24457,383.56763z" style="" fill="#85421e"></path>
				</g>
				<g>
					<path d="M178.78406,382.64941c1.28857-0.2041,1.71887-0.86157,1.91656-1.43286
						c0.38849-1.05835,0.59271-2.08838,0.38763-3.20361c-0.36896-2.08936,1.23932-3.90234,0.38776-6.05493
						c-0.02081-0.03003-0.2218-0.05298-0.34802-0.07812c0.06348-0.68896-1.05231-1.38794-2.50574-1.56567
						c-1.44977-0.17749-2.71722,0.25024-2.7962,0.96167l-0.33069-0.03735c-0.28876,0.30127-0.16443,0.64966-0.09875,0.99023
						c0.00983-0.0791,0.01904-0.15308,0.02893-0.23291c-0.29224,3.01562-1.49481,6.09082,0.5907,9.1521
						c0.28729,0.41113,0.63055,0.81689,0.83295,1.25391c-0.11493,0.28198,0.29846,0.57617,0.95355,0.66138
						c0.63629,0.07837,1.24695-0.07983,1.36932-0.36426L178.78406,382.64941z" style="" fill="#85421e"></path>
				</g>
				<g>
					<path d="M168.39026,381.14307c1.29987-0.13843,1.7674-0.77246,1.99762-1.33228
						c0.44861-1.03638,0.71143-2.05371,0.56995-3.17676c-0.24969-2.10303,1.46106-3.83081,0.7326-6.021
						c-0.0191-0.03125-0.21863-0.06421-0.34338-0.0957c0.10266-0.68408-0.97266-1.43726-2.41516-1.6875
						c-1.43884-0.24976-2.73004,0.11304-2.84961,0.81885l-0.32843-0.05396c-0.30585,0.28613-0.20148,0.63965-0.15527,0.98267
						c0.01434-0.07837,0.02777-0.15186,0.04224-0.23096c-0.46423,2.99316-1.84204,5.99927,0.06812,9.15869
						c0.26379,0.42456,0.5838,0.84668,0.76117,1.29272c-0.13098,0.27563,0.2655,0.59009,0.91559,0.70825
						c0.63159,0.1106,1.2511-0.01636,1.38965-0.29395L168.39026,381.14307z" style="" fill="#85421e"></path>
				</g>
				<g>
					<path d="M158.09698,379.05176c1.3078-0.07202,1.81158-0.68066,2.07373-1.22754
						c0.50781-1.01074,0.82874-2.01196,0.75134-3.13892c-0.12964-2.10962,1.67975-3.74683,1.07635-5.96753
						c-0.01733-0.03198-0.21497-0.07495-0.33795-0.1123c0.14178-0.677-0.89044-1.48218-2.31866-1.80371
						c-1.42487-0.31982-2.737-0.02197-2.89215,0.65723l-0.32104-0.08691c-0.31909,0.25781-0.23712,0.62427-0.21191,0.97388
						c0.0188-0.07739,0.03644-0.1499,0.05542-0.22827c-0.3244,1.48193-0.86035,2.94873-1.11359,4.46289
						c-0.25195,1.51562-0.2229,3.08911,0.65057,4.70239c0.23956,0.43652,0.53546,0.87378,0.68738,1.32764
						c-0.14673,0.26807,0.23181,0.60181,0.87512,0.75244c0.62537,0.14209,1.25214,0.04712,1.40656-0.22266L158.09698,379.05176z" style="" fill="#85421e"></path>
				</g>
				<g>
					<path d="M147.9375,376.38208c1.31238-0.00586,1.85107-0.58691,2.14453-1.1189c0.56567-0.98193,0.94385-1.96362,0.93073-3.09106
						c-0.0094-2.10913,1.89417-3.6499,1.41718-5.89355c-0.0155-0.03271-0.21075-0.08545-0.33167-0.12915
						c0.18042-0.66748-0.8064-1.52148-2.21686-1.91357c-1.41437-0.36743-2.70398-0.26489-2.91064,0.44434l-0.31647-0.10254
						c-0.33398,0.24097-0.27283,0.61011-0.26746,0.95972c0.02319-0.07617,0.04498-0.14746,0.06848-0.22461
						c-0.80609,2.92407-2.51251,5.72852-1.00281,9.16577c0.20868,0.4668,0.48413,0.90332,0.60889,1.36768
						c-0.16205,0.25977,0.19757,0.61133,0.83252,0.79419c0.61749,0.17334,1.24994,0.11011,1.4198-0.15088L147.9375,376.38208z" style="" fill="#85421e"></path>
				</g>
				<g>
					<path d="M137.94415,373.14258c1.31372,0.06079,1.88586-0.49121,2.20978-1.00635
						c0.62201-0.94971,1.05627-1.90894,1.10718-3.03271c0.11047-2.10181,2.10327-3.5415,1.75336-5.80054
						c-0.01367-0.0332-0.20612-0.0957-0.32465-0.14502c0.22174-0.66479-0.72791-1.53638-2.10303-2.03687
						c-1.36035-0.53027-2.68298-0.42505-2.92224,0.25024l-0.31104-0.11792c-0.34808,0.22314-0.30774,0.59375-0.32214,0.94238
						c0.02759-0.07471,0.05341-0.14478,0.0813-0.22021c-0.9726,2.87183-2.83972,5.57886-1.52289,9.07861
						c0.18396,0.47168,0.42316,0.95215,0.51904,1.42798c-0.17334,0.24097,0.15173,0.6499,0.77637,0.86523
						c0.60809,0.20386,1.24457,0.17285,1.42938-0.07861L137.94415,373.14258z" style="" fill="#85421e"></path>
				</g>
				<g>
					<path d="M128.15381,369.33252c1.30109,0.15161,1.91278-0.38721,2.26379-0.87817
						c0.67639-0.91455,1.16541-1.8479,1.27991-2.96436c0.22937-2.0874,2.30603-3.42114,2.08325-5.68823
						c-0.01178-0.03394-0.20099-0.10547-0.31689-0.16064c0.12872-0.32104-0.03082-0.71777-0.39185-1.09985
						c-0.35333-0.40088-0.90179-0.80225-1.57117-1.10034c-1.33301-0.59595-2.66394-0.55737-2.94153,0.10278l-0.30499-0.13281
						c-0.36121,0.20459-0.34155,0.57568-0.37555,0.92188c0.0318-0.073,0.06165-0.14136,0.09381-0.21509
						c-1.13562,2.8103-3.15759,5.41113-2.03558,8.96216c0.15765,0.479,0.37018,0.96924,0.43945,1.448
						c-0.18988,0.2373,0.12134,0.64087,0.72278,0.91455c0.58624,0.25977,1.21149,0.29346,1.41296,0.04688
						C128.38977,369.44409,128.27332,369.38477,128.15381,369.33252z" style="" fill="#85421e"></path>
				</g>
				<g>
					<path d="M118.61877,364.92383c1.28064,0.24585,1.90735-0.22681,2.28632-0.69727
						c0.72522-0.86914,1.26886-1.77686,1.44708-2.88428c0.35608-2.08569,2.48987-3.26514,2.41083-5.56836
						c-0.0094-0.0354-0.19055-0.12549-0.30072-0.19189c0.29248-0.62695-0.52008-1.66431-1.82623-2.32568
						c-1.30273-0.65991-2.63873-0.68799-2.95355-0.04517l-0.29822-0.14746c-0.37335,0.18555-0.37433,0.55566-0.42767,0.89844
						c0.03595-0.07104,0.06964-0.13745,0.10596-0.20923c-1.29437,2.7395-3.4649,5.22583-2.53894,8.81689
						c0.13129,0.48462,0.31683,0.9834,0.35944,1.46338c-0.20343,0.22656,0.08582,0.64404,0.67303,0.94678
						c0.57184,0.29004,1.19958,0.34863,1.41077,0.12256L118.61877,364.92383z" style="" fill="#85421e"></path>
				</g>
				<g>
					<path d="M109.34741,359.98828c1.26978,0.30933,1.92407-0.12915,2.32996-0.57837
						c0.77246-0.82373,1.36365-1.69214,1.61005-2.79712c0.47589-2.06372,2.6698-3.11133,2.72467-5.41919
						c-0.00745-0.03564-0.18408-0.13428-0.29089-0.20605c0.32788-0.60913-0.4295-1.68188-1.70239-2.40552
						c-1.26965-0.72192-2.60736-0.81714-2.95837-0.19336l-0.29083-0.16187c-0.38446,0.16577-0.40576,0.53418-0.47815,0.87256
						c0.03992-0.06909,0.07739-0.13354,0.11774-0.20312c-1.44843,2.66016-3.76062,5.02368-3.03113,8.64355
						c0.10474,0.48877,0.26312,0.99438,0.2793,1.47412c-0.21643,0.21533,0.05035,0.64526,0.62207,0.97632
						c0.55695,0.31763,1.18274,0.40771,1.40692,0.19336L109.34741,359.98828z" style="" fill="#85421e"></path>
				</g>
				<g>
					<path d="M100.36731,354.54272c1.25586,0.37256,1.93579-0.03076,2.36731-0.45703
						c0.81958-0.78003,1.45984-1.61426,1.76746-2.70068c0.59015-2.02881,2.84729-2.95996,3.02856-5.25293
						c-0.00555-0.03589-0.17725-0.14282-0.28046-0.21973c0.36206-0.58911-0.33875-1.69434-1.57574-2.47827
						c-1.24292-0.76831-2.55957-0.95947-2.93732-0.36914l-0.27356-0.18921c-0.38782,0.1355-0.43402,0.50757-0.52808,0.84497
						c0.04382-0.06641,0.0849-0.12891,0.12921-0.19604c-1.59058,2.5625-4.05011,4.81494-3.53729,8.48242
						c0.07825,0.4917,0.20929,1.00269,0.19922,1.48071c-0.2287,0.20312,0.01514,0.64429,0.57007,1.00293
						c0.54089,0.34399,1.16321,0.46558,1.39966,0.26367L100.36731,354.54272z" style="" fill="#85421e"></path>
				</g>
				<g>
					<path d="M91.7049,348.60596c1.23883,0.43457,1.9425,0.06812,2.39825-0.33374c0.86414-0.73413,1.55145-1.53101,1.91882-2.59595
						c0.70166-1.98779,3.01575-2.79907,3.32159-5.07007c-0.0036-0.03589-0.16998-0.15112-0.26935-0.23267
						c0.39502-0.56763-0.24817-1.7019-1.44653-2.54395c-1.17706-0.8645-2.45447-1.16577-2.88019-0.57788l-0.26428-0.20215
						c-0.3963,0.11499-0.46259,0.48267-0.57507,0.81348c0.04755-0.06396,0.0921-0.12402,0.14014-0.18848
						c-1.7439,2.48096-4.29669,4.54907-4.02826,8.28613c0.04468,0.50244,0.12994,1.04199,0.09723,1.51245
						c-0.2403,0.19019-0.01978,0.6416,0.51709,1.02637c0.52356,0.36987,1.14093,0.52246,1.38892,0.33374L91.7049,348.60596z" style="" fill="#85421e"></path>
				</g>
				<g>
					<path d="M83.38544,342.19727c1.21887,0.49561,1.94415,0.16748,2.42279-0.20898c0.90594-0.68579,1.63806-1.44287,2.0636-2.48315
						c0.81024-1.94019,3.1748-2.62866,3.60321-4.87085c-0.00171-0.03589-0.16248-0.15894-0.25775-0.24512
						c0.43829-0.55835-0.18671-1.66992-1.27942-2.646c-1.10797-0.95215-2.39325-1.2937-2.84552-0.73828l-0.25439-0.2146
						c-0.40369,0.09399-0.48969,0.4563-0.62012,0.7793c0.05109-0.06128,0.099-0.11841,0.15063-0.18018
						c-1.88135,2.3772-4.55176,4.30176-4.48175,8.03149c0.01556,0.50464,0.08032,1.03613,0.01123,1.51562
						c-0.24884,0.17383-0.06506,0.6499,0.43317,1.0835c0.47827,0.42725,1.10852,0.58716,1.36133,0.41943L83.38544,342.19727z" style="" fill="#85421e"></path>
				</g>
				<g>
					<path d="M75.4707,335.29541c1.15009,0.6062,1.9024,0.30908,2.40332-0.04126c0.94501-0.63525,1.71954-1.35034,2.2016-2.3623
						c0.91559-1.88721,3.32397-2.44995,3.87244-4.65674c0.00079-0.03638-0.15582-0.16504-0.24432-0.25806
						c0.45703-0.51953-0.02863-1.74658-1.09314-2.7522c-1.06171-1.00342-2.33337-1.40942-2.81622-0.88062l-0.24402-0.22656
						c-0.40991,0.07251-0.51526,0.42822-0.66309,0.74243l0.16058-0.17114c-2.01245,2.26562-4.7923,4.04028-4.91895,7.7522
						c-0.01105,0.50269,0.02582,1.03418-0.06879,1.50732c-0.25879,0.16016-0.09961,0.64307,0.3772,1.1001
						c0.4657,0.44043,1.05023,0.67432,1.31628,0.51685L75.4707,335.29541z" style="" fill="#85421e"></path>
				</g>
				<g>
					<path d="M67.96588,327.95093c1.12915,0.65576,1.87952,0.41919,2.3949,0.10229c0.97217-0.57324,1.78333-1.24048,2.33075-2.23218
						c1.03748-1.84814,3.43463-2.23462,4.13745-4.43652c0.00293-0.03638-0.13849-0.18115-0.22058-0.28027
						c0.48572-0.49243,0.06238-1.7373-0.95343-2.79248c-1.01306-1.05249-2.26782-1.52222-2.77979-1.02197l-0.23303-0.23755
						c-0.41504,0.05054-0.53918,0.39844-0.7038,0.70312l0.16998-0.16162c-2.13702,2.14697-5.01782,3.76538-5.33893,7.44897
						c-0.03735,0.49927-0.0282,1.02979-0.14795,1.49536c-0.26788,0.14551-0.13354,0.63403,0.32074,1.11328
						c0.44409,0.4624,1.01813,0.72559,1.29327,0.58276L67.96588,327.95093z" style="" fill="#85421e"></path>
				</g>
				<g>
					<path d="M60.87939,320.20264c1.09851,0.71167,1.86353,0.51587,2.39697,0.22803c1.00494-0.51855,1.85333-1.1394,2.45404-2.09668
						c1.1366-1.78271,3.56165-2.04102,4.3808-4.19287c0.00482-0.03613-0.12958-0.18726-0.20685-0.29004
						c0.51282-0.46411,0.15234-1.72388-0.81232-2.82593c-0.9599-1.10132-2.20276-1.6272-2.72736-1.16919l-0.20892-0.25879
						c-0.40973,0.02075-0.55872,0.36548-0.74384,0.66309l0.17902-0.15186c-1.13354,1.00781-2.42944,1.87939-3.52435,2.95532
						c-1.09802,1.08081-1.99139,2.36377-2.23633,4.18433c-0.06335,0.49438-0.08167,1.02222-0.22595,1.47876
						c-0.27631,0.13062-0.16687,0.62329,0.26385,1.12402c0.42139,0.48315,0.98352,0.77515,1.26691,0.64771L60.87939,320.20264z" style="" fill="#85421e"></path>
				</g>
				<g>
					<path d="M54.23273,312.07349c1.065,0.76611,1.84241,0.61206,2.39233,0.35425c1.03473-0.46216,1.91772-1.03418,2.56952-1.9541
						c1.23181-1.71191,3.67786-1.84009,4.61011-3.93579c0.00671-0.03564-0.12042-0.19312-0.19263-0.29932
						c0.53833-0.43433,0.24121-1.70532-0.6701-2.85205c-0.91821-1.13696-2.03302-1.80396-2.61407-1.35327l-0.19629-0.26855
						c-0.41211-0.00122-0.57916,0.3335-0.78009,0.61963c0.06354-0.0481,0.12311-0.09302,0.18732-0.1416
						c-2.36969,1.89282-5.39838,3.16138-6.19305,6.82739c-0.10779,0.5022-0.14612,1.02075-0.31573,1.46802
						c-0.28381,0.11499-0.19952,0.61084,0.20667,1.13159c0.39771,0.50269,0.94641,0.82324,1.23724,0.71167L54.23273,312.07349z" style="" fill="#85421e"></path>
				</g>
				<g>
					<path d="M48.04669,303.58691c1.02869,0.81934,1.81616,0.70801,2.38086,0.4812c1.06134-0.40381,1.9762-0.92529,2.67688-1.80493
						c1.32288-1.63623,3.78278-1.63232,4.82477-3.66577c0.00848-0.03516-0.11096-0.19849-0.17804-0.30811
						c0.57501-0.41138,0.29993-1.66284-0.49811-2.89038c-0.79303-1.22656-1.92816-1.91626-2.51807-1.51001l-0.18329-0.27783
						c-0.41321-0.02319-0.59778,0.30029-0.81378,0.57397c0.06616-0.04419,0.12823-0.08569,0.19507-0.13062
						c-2.47272,1.75439-5.57428,2.85156-6.55817,6.45508c-0.12732,0.48926-0.21497,1.01807-0.41632,1.45923
						c-0.28729,0.09717-0.24573,0.60645,0.11011,1.16309c0.37305,0.52148,0.9068,0.86963,1.20416,0.77441L48.04669,303.58691z" style="" fill="#85421e"></path>
				</g>
				<g>
					<path d="M42.36951,294.75073c0.93298,0.90527,1.7691,0.8125,2.33417,0.62524c1.08472-0.34399,2.02856-0.81299,2.77588-1.64966
						c1.40948-1.55518,3.87598-1.41797,5.02393-3.38354c0.01031-0.03442-0.1012-0.20337-0.1629-0.31592
						c0.56818-0.36035,0.44342-1.67212-0.28778-2.94067c-0.73334-1.26294-1.83667-2.01099-2.44867-1.63916l-0.16974-0.28613
						c-0.41315-0.0459-0.61456,0.26587-0.84497,0.52637c0.0686-0.04053,0.13293-0.07837,0.20221-0.11938
						c-2.56793,1.60986-5.73267,2.53125-6.90204,6.06201c-0.15247,0.47998-0.26721,1.00122-0.49146,1.4292
						c-0.29315,0.08081-0.27692,0.5896,0.0509,1.16333c0.3219,0.55444,0.81586,0.94385,1.11523,0.86768L42.36951,294.75073z" style="" fill="#85421e"></path>
				</g>
				<g>
					<path d="M37.23138,285.58984c0.89594,0.94873,1.68152,0.93311,2.26477,0.77393c1.0932-0.27637,2.05884-0.68872,2.86383-1.4873
						c1.51678-1.48315,3.92145-1.17847,5.21802-3.0957c0.01312-0.03418-0.0813-0.21289-0.13184-0.3313
						c0.60455-0.33618,0.552-1.65161-0.12158-2.95142c-0.67163-1.29663-1.74005-2.10156-2.37213-1.76562l-0.15576-0.29395
						c-0.41187-0.06836-0.62933,0.23071-0.87335,0.47681c0.07074-0.03638,0.13715-0.07056,0.20862-0.10742
						c-2.65491,1.45972-5.87286,2.20117-7.22339,5.6499c-0.17712,0.46899-0.31854,0.9812-0.565,1.39478
						c-0.29785,0.06421-0.30737,0.57153-0.00787,1.1604c0.29449,0.56958,0.76984,0.98462,1.07373,0.92529L37.23138,285.58984z" style="" fill="#85421e"></path>
				</g>
				<g>
					<path d="M32.61407,276.15552c0.84961,0.99438,1.63757,1.02271,2.23004,0.89673c1.10938-0.21411,2.09784-0.57104,2.94476-1.3208
						c1.5946-1.39185,3.98907-0.95483,5.38483-2.79077c0.01489-0.0332-0.07074-0.21655-0.11548-0.33716
						c0.6228-0.30103,0.63605-1.61255,0.02625-2.9436c-0.60815-1.32764-1.63837-2.18799-2.28851-1.88892l-0.14136-0.30127
						c-0.40918-0.09106-0.64209,0.19458-0.89893,0.42578c0.07275-0.03223,0.14093-0.0625,0.21442-0.09521
						c-2.73334,1.30444-5.9942,1.86255-7.52124,5.21973c-0.20117,0.45679-0.36865,0.95898-0.63647,1.35669
						c-0.30164,0.04736-0.33685,0.55176-0.06659,1.15479c0.26624,0.5835,0.7215,1.02295,1.02899,0.98071L32.61407,276.15552z" style="" fill="#85421e"></path>
				</g>
				<g>
					<path d="M28.53363,266.47632c0.80072,1.03809,1.58856,1.11035,2.18829,1.01831
						c1.12201-0.15088,2.13007-0.45068,3.01617-1.14966c1.6673-1.29614,4.04395-0.72681,5.53424-2.47607
						c0.01654-0.03223-0.06006-0.21948-0.09882-0.34204c0.63898-0.26465,0.7179-1.56958,0.17358-2.92871
						c-0.56476-1.34766-1.49078-2.28491-2.15204-2.02539l-0.1106-0.31372c-0.39368-0.11792-0.64941,0.15625-0.92358,0.37402
						c0.07452-0.02808,0.14441-0.05444,0.21973-0.08276c-2.79755,1.14282-6.09302,1.51538-7.85425,4.79492
						c-0.22449,0.4436-0.41754,0.93408-0.70581,1.31519c-0.3045,0.03003-0.36517,0.53027-0.125,1.14575
						c0.23718,0.59595,0.67096,1.05933,0.98108,1.03442L28.53363,266.47632z" style="" fill="#85421e"></path>
				</g>
				<g>
					<path d="M25.00482,256.58203c0.74927,1.0791,1.53436,1.1958,2.13947,1.13818c1.13092-0.08691,2.15533-0.32837,3.0777-0.97461
						c1.73438-1.19653,4.08563-0.49512,5.66547-2.15283c0.01825-0.03125-0.04913-0.22217-0.08179-0.34619
						c0.65308-0.22754,0.7973-1.52246,0.32013-2.90674c-0.43323-1.3938-1.29767-2.38501-1.98511-2.1604l-0.09503-0.3186
						c-0.38818-0.13989-0.6579,0.11865-0.94324,0.32007c0.07599-0.02368,0.14728-0.0459,0.22406-0.07007
						c-2.86884,0.98315-6.14978,1.15625-8.12805,4.33887c-0.2616,0.43359-0.50098,0.91772-0.8158,1.2832
						c-0.30634,0.0127-0.39233,0.50757-0.18292,1.13428c0.20734,0.60693,0.61823,1.09277,0.92993,1.08569L25.00482,256.58203z" style="" fill="#85421e"></path>
				</g>
				<g>
					<path d="M22.04047,246.50317c0.69525,1.11792,1.47504,1.27881,2.0835,1.25562c1.13611-0.02222,2.17352-0.20459,3.12903-0.7959
						c1.79584-1.09326,4.11383-0.26099,5.77808-1.82275c0.01978-0.03003-0.03809-0.22388-0.06458-0.34961
						c0.68781-0.19531,0.82281-1.45801,0.51764-2.89062c-0.33392-1.42139-1.17078-2.45337-1.86322-2.27026l-0.0791-0.323
						c-0.38135-0.16162-0.66418,0.08081-0.95978,0.26538c0.07727-0.01953,0.14972-0.0376,0.22772-0.05713
						c-2.91974,0.81616-6.21057,0.80151-8.35052,3.86084c-0.28467,0.41748-0.54529,0.88574-0.88342,1.23315
						c-0.30347-0.00562-0.4353,0.48779-0.28821,1.13184c0.14355,0.62524,0.5542,1.12646,0.85901,1.13916L22.04047,246.50317z" style="" fill="#85421e"></path>
				</g>
				<g>
					<path d="M19.68945,236.26416c0.56451,1.16895,1.38831,1.36328,1.9823,1.37817c1.13751,0.04272,2.18439-0.08008,3.16998-0.61475
						c1.85126-0.9873,4.1283-0.02563,5.8714-1.4873c0.02124-0.02881-0.02692-0.22534-0.04712-0.35205
						c0.65491-0.14673,0.9906-1.42554,0.72778-2.86572c-0.26276-1.43628-1.04797-2.51318-1.74957-2.37012l-0.06293-0.32666
						c-0.37329-0.18286-0.66827,0.04248-0.97314,0.20972c0.07825-0.01489,0.15155-0.02881,0.23059-0.04395
						c-2.96094,0.64722-6.25061,0.44458-8.54523,3.3728c-0.30585,0.40015-0.59009,0.85205-0.94592,1.1792
						c-0.30316-0.02295-0.45996,0.46143-0.34552,1.1123c0.11536,0.63062,0.44843,1.16431,0.75592,1.1936L19.68945,236.26416z" style="" fill="#85421e"></path>
				</g>
				<g>
					<path d="M17.94678,225.90601c0.51984,1.1958,1.26373,1.44678,1.86615,1.49414c1.12177,0.10938,2.16974,0.04785,3.19794-0.43164
						c1.93005-0.88354,4.08716,0.21655,5.95776-1.1499c0.02399-0.02783-0.00403-0.22803-0.01129-0.35669
						c0.68268-0.11206,1.08032-1.36816,0.88898-2.81982c-0.19061-1.44824-0.92145-2.56738-1.62994-2.4646l-0.04645-0.32935
						c-0.36395-0.20361-0.6701,0.00439-0.98328,0.15381c0.07898-0.0105,0.15295-0.02026,0.23273-0.03076
						c-2.99225,0.47681-6.26984,0.0874-8.71167,2.8772c-0.32599,0.38184-0.633,0.81641-1.00525,1.12231
						c-0.30188-0.04028-0.48322,0.43408-0.40186,1.0896c0.08337,0.63574,0.38928,1.18701,0.69519,1.23364L17.94678,225.90601z" style="" fill="#85421e"></path>
				</g>
				<g>
					<path d="M16.78992,215.46851c0.45874,1.2229,1.18939,1.51538,1.789,1.59717c1.11542,0.1731,2.16583,0.17114,3.21765-0.24878
						c1.97339-0.77173,4.07361,0.44873,6.01196-0.80835c0.02533-0.02637,0.00745-0.22803,0.00665-0.35669
						c0.68787-0.073,1.14844-1.3042,1.03027-2.76392c-0.11768-1.4563-0.79163-2.61499-1.5047-2.55249l-0.02985-0.33154
						c-0.35333-0.22388-0.66968-0.03345-0.99011,0.09766c0.07941-0.00586,0.15387-0.01123,0.23401-0.01733
						c-3.01367,0.30615-6.26837-0.26807-8.84949,2.37695c-0.34503,0.3623-0.67389,0.77856-1.06134,1.0625
						c-0.29962-0.05713-0.50488,0.40576-0.45679,1.06445c0.05096,0.63892,0.32861,1.2063,0.63196,1.27051L16.78992,215.46851z" style="" fill="#85421e"></path>
				</g>
				<g>
					<path d="M16.21967,204.98584c0.39606,1.24634,1.11108,1.57959,1.70593,1.69507c1.10547,0.2356,2.15491,0.29321,3.22687-0.06641
						c2.01038-0.65894,4.04675,0.67847,6.04657-0.46729c0.02661-0.02466,0.01892-0.22705,0.0246-0.35547
						c0.69086-0.03418,1.21295-1.23755,1.16846-2.7019c-0.04419-1.46094-0.65887-2.65576-1.37421-2.63354l-0.01306-0.33276
						c-0.34161-0.24341-0.66724-0.07129-0.99384,0.04199c0.07959-0.00146,0.15424-0.00293,0.23462-0.00439
						c-3.02545,0.13599-6.24677-0.61987-8.95892,1.875c-0.36298,0.34229-0.71259,0.73901-1.11401,1.00073
						c-0.29633-0.07397-0.52484,0.37622-0.51031,1.03638c0.01843,0.64062,0.26697,1.22241,0.56671,1.30347L16.21967,204.98584z" style="" fill="#85421e"></path>
				</g>
				<g>
					<path d="M16.23297,194.4895c0.33234,1.26685,1.02948,1.63989,1.61761,1.78857c1.09198,0.29736,2.13715,0.41382,3.22577,0.11475
						c2.04089-0.54492,4.00702,0.90503,6.06183-0.12671c0.02783-0.02344,0.0304-0.22583,0.04254-0.35376
						c0.69159,0.00488,1.27356-1.16748,1.3028-2.63257c0.01904-1.46167-0.51416-2.68823-1.21246-2.70532l0.021-0.33203
						c-0.31616-0.26172-0.65887-0.1084-0.99646-0.01416c0.07959,0.00293,0.15424,0.00586,0.23462,0.00903
						c-3.01166-0.03369-6.22473-0.97119-9.08228,1.3667c-0.37976,0.32129-0.74896,0.69775-1.16302,0.93652
						c-0.29218-0.09033-0.54321,0.34644-0.56219,1.00635c-0.01404,0.64062,0.20459,1.23584,0.49982,1.3335L16.23297,194.4895z" style="" fill="#85421e"></path>
				</g>
				<g>
					<path d="M16.82983,184.00806c0.2674,1.28442,0.9444,1.69653,1.52399,1.87817c1.07501,0.35864,2.11255,0.53394,3.21448,0.29663
						c2.06488-0.4292,3.95447,1.12988,6.05786,0.21533c0.02893-0.02173,0.04169-0.22363,0.06024-0.35083
						c0.69019,0.0437,1.3302-1.09399,1.43311-2.55518c0.07196-1.46094-0.28156-2.70361-1.01849-2.76465l0.03766-0.33057
						c-0.30237-0.2793-0.6521-0.14575-0.99384-0.0708c0.07928,0.00757,0.15369,0.01489,0.23376,0.02246
						c-3.02618-0.20654-6.11407-1.3186-9.18323,0.8457c-0.40771,0.29834-0.78644,0.65454-1.21466,0.86938
						c-0.28699-0.10693-0.55975,0.31543-0.6123,0.97388c-0.04657,0.63916,0.14142,1.24609,0.43115,1.3606L16.82983,184.00806z" style="" fill="#85421e"></path>
				</g>
				<g>
					<path d="M18.01318,173.57349c0.2016,1.29858,0.85632,1.74902,1.42548,1.96338c1.05457,0.41968,2.08105,0.65356,3.19269,0.479
						c2.08221-0.31128,3.88916,1.35376,6.03418,0.55957c0.02997-0.02002,0.05286-0.22119,0.07782-0.34717
						c0.68854,0.0835,1.37769-1.01782,1.56305-2.47046c0.25134-1.43823-0.11328-2.71289-0.82275-2.81226l0.05414-0.32812
						c-0.2876-0.29639-0.64319-0.18286-0.98785-0.1272c0.07874,0.01196,0.15253,0.02344,0.23206,0.03564
						c-3.00861-0.37891-6.03271-1.66675-9.20435,0.32202c-0.42609,0.27441-0.84979,0.60449-1.29755,0.7937
						c-0.27667-0.1228-0.60144,0.27905-0.67798,0.93555c-0.07898,0.63623,0.07776,1.25342,0.36108,1.38428L18.01318,173.57349z" style="" fill="#85421e"></path>
				</g>
				<g>
					<path d="M19.7821,163.21899c0.13519,1.30981,0.76544,1.79736,1.32233,2.04419c1.03064,0.47974,2.04272,0.77222,3.1604,0.66113
						c2.09253-0.19263,3.81104,1.57495,5.99048,0.90356c0.03094-0.01831,0.06384-0.21802,0.09503-0.34253
						c0.69153,0.12451,1.39435-0.94507,1.745-2.36694c0.32269-1.42407,0.02289-2.71948-0.6795-2.85938l0.07043-0.32495
						c-0.27191-0.31274-0.6322-0.21948-0.97864-0.18384c0.07788,0.0166,0.15094,0.03223,0.22961,0.04907
						c-2.98108-0.55078-5.9314-2.01123-9.19476-0.20337c-0.43878,0.25-0.87805,0.55591-1.33417,0.71948
						c-0.2702-0.13867-0.60486,0.24683-0.75507,0.89038c-0.15314,0.62305-0.01453,1.25171,0.25928,1.39819L19.7821,163.21899z" style="" fill="#85421e"></path>
				</g>
				<g>
					<path d="M22.18353,152.99146c-0.00183,1.2998,0.62451,1.8291,1.16376,2.10669c1.00336,0.53857,1.99768,0.88892,3.11755,0.8418
						c2.09589-0.073,3.72034,1.79248,5.92688,1.24561c0.0318-0.0166,0.07458-0.21436,0.11194-0.33691
						c0.66583,0.15918,1.53021-0.84131,1.92224-2.25146c0.39282-1.40625,0.15881-2.71924-0.53418-2.89917l0.08649-0.32129
						c-0.25531-0.32837-0.61902-0.25562-0.96613-0.2395c0.07678,0.021,0.1488,0.04077,0.22638,0.06201
						c-2.9436-0.72095-5.8103-2.3501-9.15442-0.72803c-0.45001,0.2251-0.90338,0.50635-1.36627,0.6438
						c-0.26239-0.15405-0.61548,0.2124-0.79773,0.84766c-0.17261,0.61743-0.10706,1.24365,0.15637,1.40527L22.18353,152.99146z" style="" fill="#85421e"></path>
				</g>
				<g>
					<path d="M25.17291,142.92041c-0.05615,1.3042,0.5025,1.85718,1.02295,2.16504c0.9599,0.5918,1.92853,0.99756,3.06195,1.0188
						c2.12036,0.05518,3.57751,1.99316,5.85553,1.58789c0.03369-0.0144,0.09613-0.20679,0.14575-0.32544
						c0.66235,0.19971,1.5686-0.75415,2.03119-2.14307c0.46161-1.38525,0.29419-2.71265-0.38715-2.93213l0.10229-0.31665
						c-0.23792-0.34326-0.60388-0.29102-0.9505-0.29468c0.0755,0.02539,0.14624,0.04932,0.22241,0.07495
						c-2.89624-0.88867-5.66986-2.68213-9.08362-1.24878c-0.45972,0.19971-0.9256,0.45532-1.3938,0.56641
						c-0.2536-0.16895-0.62396,0.17773-0.83765,0.80298c-0.20319,0.60815-0.16949,1.23853,0.08484,1.41528L25.17291,142.92041z" style="" fill="#85421e"></path>
				</g>
				<g>
					<path d="M28.72614,133.03516c-0.1217,1.30249,0.40686,1.8877,0.90973,2.22534c0.92639,0.64697,1.87079,1.10791,2.99872,1.19336
						c2.10907,0.17529,3.46332,2.19824,5.7525,1.92139c0.03424-0.01245,0.10602-0.20142,0.16144-0.31763
						c0.64966,0.2373,1.59991-0.6665,2.12994-2.03101c0.52893-1.36108,0.42865-2.69995-0.23877-2.95825l0.11774-0.31128
						c-0.21826-0.35645-0.58704-0.32544-0.93164-0.34863c0.07385,0.02979,0.14313,0.05762,0.21771,0.08765
						c-2.83948-1.05347-5.51086-3.00562-8.98285-1.76343c-0.46796,0.17383-0.94482,0.40332-1.41675,0.48804
						c-0.24408-0.18335-0.63043,0.14258-0.87482,0.75659c-0.23309,0.59741-0.23138,1.23022,0.01306,1.42163L28.72614,133.03516z" style="" fill="#85421e"></path>
				</g>
				<g>
					<path d="M32.83032,123.36597c-0.18689,1.29761,0.30981,1.91357,0.79358,2.28003
						c0.88971,0.69995,1.80682,1.21484,2.92548,1.36401c2.091,0.29395,3.33783,2.39648,5.63068,2.2478
						c0.03473-0.0105,0.11566-0.19604,0.17664-0.30908c0.63489,0.27417,1.62604-0.57812,2.22192-1.91528
						c0.573-1.34424,0.60748-2.65869-0.04248-2.9541l0.14783-0.2981c-0.18976-0.36475-0.56439-0.35718-0.91162-0.40234
						c0.07208,0.03394,0.13971,0.06592,0.21246,0.1001c-2.76996-1.21265-5.32739-3.31567-8.91315-2.29883
						c-0.47461,0.14795-0.96094,0.35083-1.43506,0.40942c-0.2337-0.19751-0.63483,0.10718-0.90918,0.70825
						c-0.26221,0.58521-0.29248,1.21924-0.05878,1.42456L32.83032,123.36597z" style="" fill="#85421e"></path>
				</g>
				<g>
					<path d="M37.47089,113.94312c-0.25171,1.28931,0.21161,1.93408,0.67456,2.32812c0.85016,0.75122,1.737,1.31812,2.8429,1.52979
						c2.0661,0.41113,3.20123,2.5874,5.49054,2.56616c0.03503-0.00879,0.12494-0.19019,0.19122-0.30005
						c0.6181,0.31006,1.64709-0.48877,2.30713-1.7959c0.71295-1.27441,0.80835-2.59302,0.17194-2.92749l0.16205-0.29053
						c-0.17047-0.37622-0.54358-0.3894-0.88678-0.45361c0.07001,0.03784,0.13562,0.07349,0.20636,0.11182
						c-2.70355-1.37329-5.11432-3.60718-8.77209-2.80786c-0.49384,0.11401-1.00433,0.28149-1.48962,0.30786
						c-0.22449-0.21191-0.64661,0.06714-0.94659,0.65576c-0.29065,0.57153-0.35284,1.20508-0.13055,1.42383L37.47089,113.94312z" style="" fill="#85421e"></path>
				</g>
				<g>
					<path d="M42.63141,104.79443c-0.3158,1.27808,0.11255,1.94971,0.55322,2.37036
						c0.80786,0.79956,1.66156,1.41675,2.75104,1.68994c2.03479,0.52612,3.05438,2.77002,5.33289,2.87476
						c0.03534-0.00659,0.13385-0.18335,0.20532-0.29004c0.60504,0.34839,1.63794-0.41455,2.44519-1.63721
						c0.78326-1.23267,0.93738-2.5542,0.32355-2.9231l0.17578-0.28247c-0.15051-0.38647-0.521-0.42017-0.85907-0.50342
						c0.06769,0.04199,0.13123,0.0813,0.19958,0.12354c-2.61981-1.5249-4.90448-3.896-8.5838-3.29565
						c-0.49707,0.0874-1.01343,0.22729-1.49756,0.22705c-0.20764-0.22168-0.65228,0.02808-1.01019,0.5835
						c-0.3526,0.53564-0.44336,1.16895-0.23163,1.40137L42.63141,104.79443z" style="" fill="#85421e"></path>
				</g>
				<g>
					<path d="M48.35052,95.98511c-0.42975,1.22949-0.04877,1.9187,0.37366,2.36816c0.76288,0.8457,1.58075,1.51099,2.65051,1.84448
						c1.99701,0.63843,2.89752,2.94385,5.15826,3.1731c0.03284-0.00659,0.14777-0.1731,0.22998-0.27222
						c0.57892,0.37891,1.72339-0.27661,2.56659-1.47363c0.84125-1.19434,1.06146-2.51147,0.46979-2.91455l0.18915-0.27368
						c-0.13013-0.39575-0.49677-0.44971-0.82874-0.55127c0.06525,0.04565,0.12634,0.08838,0.1922,0.13452
						c-2.52771-1.67114-4.67883-4.17236-8.36877-3.76978c-0.49878,0.0603-1.01953,0.17261-1.5011,0.146
						c-0.19519-0.2334-0.65015-0.00708-1.03448,0.53027c-0.36938,0.52368-0.51764,1.13599-0.32397,1.3772L48.35052,95.98511z" style="" fill="#85421e"></path>
				</g>
				<g>
					<path d="M54.55682,87.51392c-0.48822,1.21143-0.14746,1.9209,0.23926,2.38647c0.7052,0.88135,1.48071,1.59009,2.53967,1.99121
						c1.97595,0.76514,2.6991,3.08423,4.97723,3.46777c0.03644-0.00244,0.15942-0.16309,0.24579-0.2583
						c0.55634,0.41113,1.7276-0.18506,2.62683-1.34106c0.89716-1.15283,1.18329-2.4624,0.6156-2.89844l0.20203-0.2644
						C65.8941,90.19336,65.53235,90.11963,65.20752,90c0.0625,0.04932,0.12109,0.09546,0.1842,0.14526
						c-2.42773-1.81152-4.43823-4.43506-8.12799-4.22974c-0.49915,0.03394-1.02264,0.11841-1.50018,0.06592
						c-0.18219-0.24463-0.64624-0.04224-1.05597,0.47583c-0.39417,0.50562-0.573,1.11157-0.39276,1.36377L54.55682,87.51392z" style="" fill="#85421e"></path>
				</g>
				<g>
					<path d="M61.22296,79.40063c-0.54797,1.18896-0.24567,1.91895,0.11487,2.40649c0.65582,0.92163,1.3905,1.67358,2.42279,2.13257
						c1.92523,0.87256,2.52515,3.23779,4.77039,3.74341c0.03632-0.00049,0.16687-0.15503,0.25763-0.24609
						c0.53198,0.44189,1.72687-0.09399,2.67999-1.20605c0.94647-1.11328,1.30573-2.40479,0.77643-2.86084l0.2265-0.24365
						c-0.07886-0.40283-0.44092-0.50146-0.76172-0.64258l0.17578,0.15576c-2.30762-1.93433-4.20007-4.69849-7.88885-4.69775
						c-0.49799,0.00757-1.02283,0.06421-1.49493-0.01367c-0.16846-0.25513-0.64032-0.0769-1.07452,0.4209
						c-0.41803,0.48608-0.62708,1.08423-0.46088,1.34692L61.22296,79.40063z" style="" fill="#85421e"></path>
				</g>
				<g>
					<path d="M68.32806,71.66943c-0.60657,1.16357-0.34393,1.91162-0.01068,2.41968c0.60413,0.95898,1.29559,1.7522,2.2981,2.26709
						c1.86871,0.97656,2.34277,3.3811,4.54852,4.00635c0.03613,0.00171,0.17389-0.14673,0.2688-0.2334
						c0.50598,0.47144,1.72131-0.00342,2.72614-1.06934c1.00909-1.0564,1.49969-2.2666,0.97473-2.77466l0.23779-0.23267
						c-0.05743-0.4082-0.41223-0.52612-0.72375-0.68433l0.16663,0.16528c-2.20935-2.07764-3.89471-4.89673-7.63397-5.16211
						c-0.50922-0.03271-1.04321-0.01245-1.50427-0.11133c-0.15424-0.26489-0.63263-0.11084-1.09015,0.36548
						c-0.44086,0.46533-0.67981,1.0542-0.5282,1.32642L68.32806,71.66943z" style="" fill="#85421e"></path>
				</g>
				<g>
					<path d="M75.85071,64.34277c-0.66406,1.13525-0.44208,1.89941-0.13739,2.42627
						c0.55042,0.99365,1.19635,1.82544,2.16602,2.39429c1.80658,1.07715,2.15247,3.51416,4.31232,4.25635
						c0.03583,0.00342,0.18042-0.13818,0.2793-0.22021c0.49219,0.51465,1.68011,0.052,2.7962-0.89697
						c1.10034-0.96069,1.62128-2.18384,1.13544-2.70996l0.2486-0.22119c-0.03564-0.41284-0.38214-0.54932-0.68353-0.72437
						l0.15698,0.17456c-2.0871-2.19873-3.61401-5.11401-7.31793-5.57446c-0.50208-0.0564-1.03754-0.06763-1.50262-0.2041
						c-0.13696-0.271-0.63446-0.15674-1.13477,0.27466c-0.47772,0.427-0.73535,1.01709-0.60223,1.29443L75.85071,64.34277z" style="" fill="#85421e"></path>
				</g>
				<g>
					<path d="M83.79779,57.47803c-0.7652,1.05005-0.56439,1.85278-0.29419,2.39111c0.49475,1.02515,1.09302,1.89307,2.02692,2.51367
						c1.73901,1.17383,1.95447,3.63647,4.06219,4.49268c0.03546,0.00537,0.18665-0.12939,0.28918-0.20654
						c0.43921,0.51343,1.7309,0.21655,2.87598-0.69629c1.14465-0.90747,1.72723-2.10767,1.27222-2.6604l0.25891-0.20923
						c-0.01361-0.41577-0.35077-0.57056-0.64105-0.76147c0.04974,0.06201,0.09644,0.12036,0.14673,0.18311
						c-1.95813-2.31299-3.32086-5.31543-6.97925-5.96826c-0.49628-0.08252-1.02814-0.12158-1.48334-0.28247
						c-0.12177-0.27856-0.62262-0.18994-1.14307,0.2168c-0.50238,0.39819-0.81714,0.94336-0.69897,1.22876L83.79779,57.47803z" style="" fill="#85421e"></path>
				</g>
				<g>
					<path d="M92.13245,51.0896c-0.81006,1.02368-0.68237,1.79956-0.44183,2.35449c0.42944,1.04321,0.97516,1.94067,1.87964,2.62329
						c1.68317,1.28931,1.72516,3.71533,3.80609,4.72412c0.03564,0.00806,0.1991-0.11108,0.3089-0.17822
						c0.41882,0.55054,1.71191,0.30908,2.90125-0.54517c1.18646-0.85205,1.8299-2.02637,1.40723-2.604l0.26855-0.19678
						c0.00879-0.41772-0.31805-0.59009-0.59644-0.79639c0.04614,0.06494,0.08942,0.12573,0.13605,0.19116
						c-1.82269-2.41968-3.01605-5.50024-6.6189-6.34229c-0.48907-0.10791-1.01587-0.17456-1.4599-0.35913
						c-0.10614-0.28589-0.60901-0.22241-1.1485,0.15894c-0.521,0.37329-0.86334,0.90381-0.76117,1.19629L92.13245,51.0896z" style="" fill="#85421e"></path>
				</g>
				<g>
					<path d="M100.80908,45.17383c-0.86127,0.98511-0.77637,1.76978-0.56714,2.33838
						c0.37061,1.06812,0.86481,1.99585,1.72742,2.72656c1.60413,1.37866,1.51477,3.81396,3.5296,4.9314
						c0.03503,0.00977,0.20392-0.10156,0.31677-0.16333c0.38672,0.57349,1.68549,0.39697,2.91418-0.39966
						c1.22577-0.79443,1.92908-1.93945,1.54016-2.54028l0.28528-0.1709c0.03766-0.4082-0.28241-0.60498-0.5509-0.83057
						c0.04242,0.06738,0.08221,0.13062,0.125,0.19873c-1.67578-2.51001-2.70941-5.68286-6.24445-6.70654
						c-0.48053-0.1333-1.00085-0.22681-1.4325-0.43457c-0.09003-0.29199-0.59363-0.25391-1.15094,0.10059
						c-0.53851,0.3479-0.90784,0.8623-0.82208,1.16089L100.80908,45.17383z" style="" fill="#85421e"></path>
				</g>
				<g>
					<path d="M109.80243,39.75024c-0.91089,0.9436-0.86938,1.73462-0.69238,2.31543c0.31018,1.08936,0.75104,2.04443,1.56915,2.8208
						c1.5202,1.46362,1.29834,3.90088,3.24121,5.12305c0.03424,0.01172,0.20837-0.09155,0.32391-0.14771
						c0.35333,0.59448,1.6546,0.48315,2.92004-0.25391c1.24866-0.76001,2.0686-1.76562,1.70593-2.40381l0.29407-0.15527
						c0.05994-0.40747-0.24768-0.62061-0.50238-0.8606c0.03851,0.06982,0.07458,0.13525,0.11346,0.20581
						c-1.53674-2.61523-2.36053-5.79248-5.87891-7.10474c-0.4715-0.15942-0.9834-0.27832-1.40155-0.50903
						c-0.07355-0.29712-0.5766-0.28467-1.15051,0.04248c-0.55481,0.32153-0.95044,0.81836-0.88147,1.12183L109.80243,39.75024z" style="" fill="#85421e"></path>
				</g>
				<g>
					<path d="M119.08606,34.83691c-0.95868,0.89966-0.96112,1.69434-0.81714,2.2854
						c0.24835,1.10767,0.63422,2.08716,1.40527,2.90649c1.43158,1.54346,1.07629,3.97534,2.94165,5.2981
						c0.03351,0.01343,0.21234-0.08105,0.33044-0.13159c0.32184,0.62036,1.61194,0.552,2.92584-0.09277
						c1.32825-0.60645,2.17389-1.62891,1.85583-2.27075l0.30133-0.14111c0.08228-0.40503-0.21198-0.63428-0.45209-0.88745
						c0.03442,0.07202,0.06671,0.1394,0.1015,0.21191c-1.38391-2.698-2.02661-5.92285-5.45569-7.41577
						c-0.46655-0.19629-0.97791-0.35938-1.38623-0.62207c-0.05145-0.29053-0.57373-0.34717-1.16003-0.04224
						c-0.56989,0.29395-0.99109,0.77197-0.93927,1.07959L119.08606,34.83691z" style="" fill="#85421e"></path>
				</g>
				<g>
					<path d="M128.63666,30.46191c-1.01331,0.83179-1.05371,1.64307-0.94537,2.23779
						c0.18536,1.12207,0.51477,2.12305,1.23639,2.98267c1.33856,1.61841,0.84949,4.03711,2.63196,5.45605
						c0.03259,0.01538,0.21582-0.07056,0.33612-0.11523c0.14069,0.31567,0.53662,0.47754,1.06238,0.48486
						c0.53217,0.02173,1.20337-0.08936,1.88312-0.36279c1.35608-0.54126,2.25519-1.52295,1.97467-2.18188l0.30786-0.12622
						c0.10461-0.40161-0.17542-0.646-0.40021-0.91162c0.03021,0.07373,0.05853,0.14282,0.08911,0.21704
						c-1.22626-2.77197-1.68481-6.03394-5.01514-7.70215c-0.45355-0.22046-0.95349-0.40942-1.3454-0.69336
						c-0.03809-0.30127-0.54456-0.35913-1.15991-0.11841c-0.59424,0.24072-1.05518,0.66309-1.01685,0.98315
						C128.39337,30.55615,128.5152,30.50952,128.63666,30.46191z" style="" fill="#85421e"></path>
				</g>
				<g>
					<path d="M138.44135,26.68872c-1.06885,0.74683-1.1662,1.52563-1.09241,2.12524
						c0.12109,1.13208,0.39294,2.15161,1.06293,3.04883c1.24677,1.70215,0.61285,4.06982,2.31689,5.6062
						c0.03192,0.01782,0.22272-0.04932,0.34723-0.08179c0.24628,0.64648,1.5567,0.78662,2.94104,0.31104
						c1.38098-0.47412,2.33179-1.41211,2.08972-2.08594l0.31366-0.11084c0.12689-0.39697-0.13812-0.65576-0.34698-0.93286
						c0.02594,0.0752,0.05023,0.14575,0.07648,0.22192c-1.06445-2.83691-1.33643-6.12573-4.55902-7.96387
						c-0.43927-0.24365-0.92657-0.45801-1.30084-0.76196c-0.02087-0.30371-0.52203-0.38721-1.14862-0.177
						c-0.60663,0.20776-1.08606,0.61719-1.07086,0.92603L138.44135,26.68872z" style="" fill="#85421e"></path>
				</g>
				<g>
					<path d="M148.44238,23.47437c-1.10736,0.6936-1.24866,1.46802-1.20917,2.07178c0.05273,1.12769,0.2641,2.15649,0.88525,3.10352
						c1.14954,1.78003,0.37238,4.0813,1.99048,5.73022c0.03082,0.01953,0.22467-0.03809,0.35052-0.0647
						c0.20868,0.65967,1.50623,0.86572,2.91235,0.45874c1.40271-0.40552,2.40332-1.29688,2.20038-1.98315l0.31885-0.09546
						c0.14899-0.39087-0.10034-0.66309-0.29266-0.95093c0.02155,0.07666,0.04181,0.14844,0.0636,0.22583
						c-0.89923-2.89258-0.98303-6.19702-4.08929-8.19897c-0.42383-0.26587-0.89716-0.50513-1.25281-0.82812
						c-0.00354-0.30493-0.49811-0.41382-1.1344-0.23511c-0.61621,0.17749-1.11719,0.56274-1.11963,0.8728L148.44238,23.47437z" style="" fill="#85421e"></path>
				</g>
				<g>
					<path d="M158.60846,20.83008c-1.14331,0.6377-1.32831,1.40552-1.32343,2.01147
						c-0.01172,1.13086,0.14026,2.17114,0.70538,3.14966c1.04419,1.83862,0.13837,4.10254,1.6571,5.83325
						c0.0296,0.02124,0.22614-0.02686,0.35309-0.04688c0.17035,0.67041,1.45184,0.94141,2.87659,0.60474
						c1.42145-0.33447,2.46875-1.17993,2.30682-1.87134l0.32666-0.0625c0.17334-0.37134-0.06146-0.66479-0.23792-0.96802
						c0.01715,0.07788,0.0332,0.15088,0.05054,0.22949c-0.72827-2.92407-0.6311-6.27124-3.61176-8.4248
						c-0.40729-0.28711-0.86542-0.55054-1.20142-0.8916c0.01385-0.30518-0.4729-0.43896-1.11731-0.29272
						c-0.62433,0.14648-1.14563,0.50659-1.16571,0.81665L158.60846,20.83008z" style="" fill="#85421e"></path>
				</g>
				<g>
					<path d="M168.90698,18.76465c-1.17639,0.58008-1.40466,1.33838-1.43439,1.94458
						c-0.07629,1.13037,0.01581,2.17822,0.52344,3.1853c0.93616,1.89136-0.09631,4.10962,1.31915,5.91699
						c0.02832,0.02271,0.22705-0.01538,0.3548-0.0293c0.13159,0.67896,1.39398,1.0144,2.83392,0.74902
						c1.43213-0.29175,2.54132-0.97827,2.41693-1.69263l0.32947-0.04639c0.19415-0.3623-0.02332-0.66748-0.18201-0.97949
						c0.01263,0.07861,0.02448,0.15234,0.03723,0.23169c-0.56177-2.97632-0.26532-6.25757-3.13049-8.66748
						c-0.38971-0.30786-0.83148-0.59424-1.14703-0.95239c0.03125-0.30444-0.44647-0.46289-1.09729-0.34912
						c-0.63092,0.11475-1.17126,0.44849-1.20898,0.75757L168.90698,18.76465z" style="" fill="#85421e"></path>
				</g>
				<g>
					<path d="M179.30469,17.28467c-1.20642,0.52002-1.47736,1.26636-1.54156,1.87085
						c-0.1405,1.12573-0.1084,2.17798,0.34052,3.21045c0.82605,1.93774-0.33051,4.10303,0.97852,5.98096
						c0.02698,0.02393,0.22736-0.00415,0.35565-0.01147c0.09253,0.6853,1.33282,1.08374,2.78455,0.89087
						c1.45386-0.13867,2.59772-0.79395,2.51453-1.5105l0.33148-0.02979c0.21442-0.35229,0.01471-0.66821-0.12592-0.98804
						c0.00812,0.07935,0.01581,0.15356,0.02405,0.23364c-0.39166-3.00732,0.09186-6.25684-2.63159-8.83008
						c-0.3728-0.34399-0.79901-0.67163-1.09467-1.05786c0.04822-0.30615-0.41901-0.48633-1.07471-0.40625
						c-0.6358,0.08276-1.19379,0.38892-1.24902,0.6958L179.30469,17.28467z" style="" fill="#85421e"></path>
				</g>
				<g>
					<path d="M189.76776,16.39258c-1.23315,0.4585-1.54584,1.19043-1.64417,1.79126
						c-0.2041,1.11768-0.23181,2.17065,0.15759,3.22485c0.71442,1.97778-0.56281,4.08301,0.63708,6.02515
						c0.02551,0.02539,0.22717,0.00732,0.35559,0.00659c0.05457,0.70923,1.26636,1.10571,2.73145,1.07446
						c1.46075-0.04272,2.63922-0.65601,2.59686-1.37109l0.33264-0.0127c0.23401-0.34131,0.05243-0.66699-0.06989-0.99341
						c0.00366,0.07959,0.00708,0.15405,0.0108,0.23438c-0.22101-3.02368,0.44476-6.24487-2.12799-8.95361
						c-0.3526-0.36255-0.75946-0.71167-1.03259-1.1123c0.06567-0.29639-0.39136-0.52417-1.05151-0.50903
						c-0.63965,0.03589-1.21326,0.32397-1.28589,0.62451L189.76776,16.39258z" style="" fill="#85421e"></path>
				</g>
				<g>
					<path d="M200.26227,16.10181c-1.25641,0.36938-1.60968,1.10303-1.7417,1.69238c-0.26654,1.10596-0.35352,2.15625-0.02417,3.229
						c0.60199,2.01147-0.79181,4.04956,0.29694,6.05005c0.02405,0.02661,0.22644,0.0188,0.35474,0.02441
						c0.00641,0.3457,0.30817,0.64868,0.78992,0.85962c0.48199,0.22974,1.14398,0.38794,1.8772,0.40186
						c1.46106,0.03101,2.67236-0.52197,2.67023-1.23828l0.33289,0.00391c0.25287-0.32886,0.08984-0.66309-0.01398-0.99536
						c-0.00079,0.07959-0.00159,0.1543-0.00238,0.23462c-0.05084-3.03076,0.79498-6.21338-1.62195-9.04883
						c-0.33179-0.37988-0.71844-0.74902-0.96869-1.16333c0.08228-0.29248-0.36133-0.54321-1.02136-0.56152
						c-0.64062-0.0105-1.22906,0.19971-1.31854,0.50757C200.00171,16.09204,200.13202,16.09912,200.26227,16.10181z" style="" fill="#85421e"></path>
				</g>
				<g>
					<path d="M210.75562,16.43213c-1.27368,0.25952-1.66663,0.95801-1.83215,1.55078
						c-0.32831,1.09082-0.47412,2.13501-0.20551,3.22266c0.48816,2.03882-1.01813,4.00366-0.04333,6.05591
						c0.02246,0.02954,0.22528,0.02588,0.35248,0.04858c-0.02429,0.69165,1.12903,1.33374,2.5899,1.43823
						c1.45721,0.10449,2.69794-0.38647,2.73627-1.10156l0.33221,0.02075c0.27106-0.31567,0.12714-0.65747,0.04224-0.99438
						c-0.00531,0.07935-0.01031,0.15381-0.01562,0.23413c0.12018-3.02808,1.14508-6.16211-1.10968-9.11548
						c-0.31006-0.396-0.67554-0.78418-0.90228-1.21045c0.09869-0.28784-0.33044-0.56079-0.98889-0.61255
						c-0.63928-0.0459-1.23962,0.14307-1.34558,0.43335L210.75562,16.43213z" style="" fill="#85421e"></path>
				</g>
				<g>
					<path d="M221.21619,17.35059c-1.28864,0.2041-1.71887,0.86133-1.91663,1.43262
						c-0.38849,1.05859-0.59271,2.08838-0.38757,3.20361c0.3689,2.08936-1.23932,3.90234-0.38782,6.05493
						c0.02081,0.03003,0.2218,0.05322,0.34808,0.07812c-0.06348,0.68896,1.05225,1.38794,2.50568,1.56567
						c1.44983,0.17749,2.71729-0.25,2.79626-0.96167l0.33069,0.03735c0.2887-0.30127,0.16443-0.64966,0.09875-0.99023
						c-0.00989,0.0791-0.01904,0.15332-0.02893,0.23291c0.29224-3.01562,1.49475-6.09058-0.5907-9.1521
						c-0.28735-0.41089-0.63062-0.81689-0.83301-1.25366c0.11499-0.28223-0.29846-0.57642-0.95355-0.66162
						c-0.63629-0.07837-1.24695,0.07983-1.36932,0.36426L221.21619,17.35059z" style="" fill="#85421e"></path>
				</g>
				<g>
					<path d="M231.60999,18.85693c-1.29993,0.13818-1.76746,0.77222-1.99768,1.33228
						c-0.44861,1.03638-0.71143,2.05347-0.56995,3.17651c0.24976,2.10303-1.46106,3.83105-0.73254,6.02124
						c0.01904,0.03101,0.21863,0.06421,0.34338,0.09546c-0.10266,0.68408,0.97266,1.43726,2.41516,1.6875
						c1.43884,0.24976,2.72998-0.11304,2.84961-0.8186l0.32837,0.05371c0.30591-0.28589,0.20154-0.63965,0.15527-0.98242
						c-0.01428,0.07812-0.02771,0.15161-0.04224,0.23071c0.46423-2.99316,1.84204-5.99927-0.06812-9.15845
						c-0.26379-0.42456-0.58374-0.84692-0.76111-1.29297c0.13098-0.27563-0.2655-0.59009-0.91565-0.70825
						c-0.63159-0.11035-1.2511,0.01636-1.38965,0.29395L231.60999,18.85693z" style="" fill="#85421e"></path>
				</g>
				<g>
					<path d="M241.9032,20.948c-1.30774,0.07227-1.81152,0.68091-2.07373,1.22754c-0.50781,1.01099-0.82874,2.01221-0.75134,3.13916
						c0.12964,2.10962-1.67969,3.74658-1.07629,5.96729c0.01733,0.03198,0.21497,0.07495,0.33789,0.11255
						c-0.14172,0.677,0.8905,1.48193,2.31873,1.80371c1.4248,0.31982,2.73694,0.02173,2.89209-0.65723l0.32104,0.08667
						c0.31909-0.25781,0.23718-0.62402,0.21191-0.97388c-0.0188,0.07739-0.03638,0.15015-0.05542,0.22827
						c0.32446-1.48169,0.86035-2.94873,1.11365-4.46265c0.25195-1.51587,0.2229-3.08911-0.65063-4.70239
						c-0.2395-0.43677-0.5354-0.87402-0.68738-1.32764c0.14673-0.26831-0.23181-0.60181-0.87512-0.75269
						c-0.62537-0.14209-1.25208-0.04688-1.40649,0.2229L241.9032,20.948z" style="" fill="#85421e"></path>
				</g>
				<g>
					<path d="M252.06274,23.61792c-1.31238,0.00562-1.85107,0.58691-2.14453,1.11865
						c-0.56567,0.98193-0.94385,1.96387-0.93079,3.09106c0.0094,2.10913-1.89417,3.65015-1.41711,5.8938
						c0.0155,0.03271,0.21069,0.08545,0.33167,0.12891c-0.18042,0.66772,0.8064,1.52148,2.2168,1.91357
						c1.41443,0.36743,2.70398,0.26514,2.91064-0.44434l0.31653,0.10254c0.33398-0.24072,0.27283-0.61011,0.26746-0.95972
						c-0.02332,0.07617-0.04504,0.14771-0.06848,0.22461c0.80603-2.92407,2.51245-5.72852,1.00281-9.16577
						c-0.20874-0.46655-0.48413-0.90332-0.60889-1.36743c0.16199-0.26001-0.19763-0.61157-0.83252-0.79443
						c-0.61755-0.17334-1.25-0.11011-1.4198,0.15088L252.06274,23.61792z" style="" fill="#85421e"></path>
				</g>
				<g>
					<path d="M262.05603,26.85718c-1.31372-0.06055-1.88586,0.49146-2.20972,1.00635
						c-0.62207,0.94995-1.05627,1.90894-1.10718,3.03271c-0.11047,2.10181-2.10327,3.5415-1.75342,5.80054
						c0.01367,0.03345,0.20618,0.0957,0.32471,0.14526c-0.2218,0.66479,0.72778,1.53638,2.10303,2.03662
						c1.36035,0.53052,2.68298,0.42505,2.92224-0.25l0.31104,0.11792c0.34802-0.22314,0.30762-0.59399,0.32214-0.94238
						c-0.02759,0.07471-0.05347,0.14478-0.0813,0.22021c0.97253-2.87183,2.83972-5.5791,1.52283-9.07886
						c-0.18396-0.47168-0.4231-0.9519-0.51904-1.42798c0.17334-0.24072-0.15173-0.64966-0.77637-0.86523
						c-0.60803-0.20361-1.24451-0.17285-1.42932,0.07886L262.05603,26.85718z" style="" fill="#85421e"></path>
				</g>
				<g>
					<path d="M271.84644,30.66724c-1.30115-0.15161-1.91284,0.38721-2.26379,0.87817
						c-0.67639,0.91455-1.16541,1.8479-1.27991,2.9646c-0.22937,2.0874-2.30603,3.4209-2.08325,5.68799
						c0.01172,0.03394,0.20093,0.10571,0.31689,0.16089c-0.12878,0.3208,0.03076,0.71753,0.39185,1.09961
						c0.35327,0.40112,0.90173,0.80225,1.57117,1.10059c1.33301,0.59595,2.66394,0.55713,2.94153-0.10303l0.30493,0.13306
						c0.36121-0.20483,0.34155-0.57593,0.37561-0.92212c-0.03186,0.073-0.06165,0.1416-0.09387,0.21533
						c1.13562-2.8103,3.15759-5.41138,2.03564-8.9624c-0.15771-0.47876-0.37024-0.96924-0.43945-1.448
						c0.18982-0.2373-0.12134-0.64087-0.72278-0.91455c-0.5863-0.25952-1.21155-0.29321-1.41296-0.04688
						C271.61047,30.55591,271.72693,30.61523,271.84644,30.66724z" style="" fill="#85421e"></path>
				</g>
				<g>
					<path d="M281.38147,35.07593c-1.28064-0.24585-1.90735,0.22681-2.28638,0.69751
						c-0.72522,0.8689-1.2688,1.77661-1.44702,2.88428c-0.35608,2.08545-2.48987,3.26489-2.41089,5.56836
						c0.0094,0.0354,0.19055,0.12524,0.30078,0.19189c-0.29248,0.62695,0.52002,1.66431,1.82617,2.32544
						c1.30273,0.65991,2.63879,0.68823,2.95361,0.04517l0.29822,0.14771c0.37329-0.18555,0.37427-0.55591,0.42761-0.89868
						c-0.03589,0.07104-0.06958,0.1377-0.10596,0.20947c1.29443-2.73975,3.46497-5.22607,2.53894-8.81689
						c-0.13123-0.48462-0.31677-0.9834-0.35938-1.46338c0.20337-0.22681-0.08582-0.64404-0.6731-0.94702
						c-0.57178-0.29004-1.19958-0.34863-1.41077-0.12231L281.38147,35.07593z" style="" fill="#85421e"></path>
				</g>
				<g>
					<path d="M290.65283,40.01172c-1.26978-0.30957-1.92407,0.12915-2.32996,0.57812
						c-0.77246,0.82373-1.36365,1.69238-1.61011,2.79712c-0.47583,2.06372-2.6698,3.11133-2.72461,5.41919
						c0.00745,0.03589,0.18408,0.13452,0.29089,0.20605c-0.32788,0.60913,0.42944,1.68188,1.70239,2.40552
						c1.26965,0.72192,2.6073,0.81714,2.95837,0.19336l0.29077,0.16187c0.38452-0.16577,0.40576-0.53394,0.47815-0.87231
						c-0.03992,0.06885-0.07739,0.1333-0.11768,0.20288c1.44836-2.66016,3.76062-5.02368,3.03113-8.64331
						c-0.10474-0.48877-0.26318-0.99463-0.2793-1.47437c0.21643-0.21509-0.05042-0.64526-0.62207-0.97632
						c-0.55701-0.31763-1.18274-0.40771-1.40698-0.19336L290.65283,40.01172z" style="" fill="#85421e"></path>
				</g>
				<g>
					<path d="M299.63293,45.45703c-1.25586-0.37231-1.93579,0.03076-2.36731,0.45703
						c-0.81958,0.78027-1.45984,1.61426-1.76746,2.70093c-0.59021,2.02881-2.84729,2.95996-3.02856,5.25269
						c0.00549,0.03589,0.17725,0.14307,0.2804,0.21973c-0.36206,0.58936,0.33875,1.69458,1.57581,2.47827
						c1.24292,0.76855,2.55957,0.95972,2.93726,0.36914l0.27356,0.18945c0.38782-0.1355,0.43408-0.50781,0.52808-0.84521
						c-0.04382,0.06665-0.08484,0.12891-0.12915,0.19604c1.59058-2.5625,4.05005-4.8147,3.53723-8.48242
						c-0.07825-0.49146-0.20923-1.00269-0.19922-1.48071c0.22876-0.20288-0.01514-0.64429-0.57007-1.00269
						c-0.54089-0.34424-1.16321-0.46558-1.39966-0.26392L299.63293,45.45703z" style="" fill="#85421e"></path>
				</g>
				<g>
					<path d="M308.29529,51.3938c-1.23877-0.43433-1.9425-0.06812-2.39819,0.33374
						c-0.86414,0.73438-1.55151,1.53125-1.91882,2.59619c-0.70166,1.98755-3.01575,2.79907-3.32166,5.06982
						c0.00366,0.03613,0.17004,0.15112,0.26941,0.23267c-0.39502,0.56763,0.24817,1.70215,1.44653,2.54419
						c1.177,0.86426,2.45447,1.16553,2.88013,0.57764l0.26428,0.20215c0.39636-0.11475,0.46265-0.48267,0.57507-0.81323
						c-0.04749,0.06396-0.09204,0.12378-0.14014,0.18823c1.7439-2.48096,4.29675-4.54907,4.02832-8.28613
						c-0.04468-0.5022-0.13-1.04175-0.09729-1.51221c0.24036-0.19043,0.01978-0.6416-0.51709-1.02637
						c-0.52356-0.37012-1.14087-0.52271-1.38892-0.33398L308.29529,51.3938z" style="" fill="#85421e"></path>
				</g>
				<g>
					<path d="M316.61475,57.80249c-1.21887-0.49536-1.94409-0.16724-2.42273,0.20898
						c-0.90601,0.68579-1.63806,1.44312-2.0636,2.48315c-0.8103,1.94019-3.1748,2.62891-3.60327,4.87085
						c0.00171,0.03613,0.16248,0.15894,0.25781,0.24512c-0.43835,0.55835,0.18665,1.66992,1.27942,2.64624
						c1.10791,0.9519,2.39319,1.29346,2.84546,0.73804l0.25439,0.2146c0.40369-0.09399,0.48975-0.45605,0.62012-0.77905
						c-0.05103,0.06104-0.099,0.11841-0.15063,0.17993c1.88135-2.37695,4.55176-4.30151,4.48181-8.03125
						c-0.01562-0.50488-0.08032-1.03613-0.01123-1.51562c0.24878-0.17407,0.06506-0.6499-0.43323-1.08374
						c-0.47827-0.42725-1.10852-0.58716-1.36133-0.41943L316.61475,57.80249z" style="" fill="#85421e"></path>
				</g>
				<g>
					<path d="M324.52954,64.70459c-1.15015-0.6062-1.90247-0.30908-2.40332,0.04126c-0.94507,0.63501-1.7196,1.3501-2.20166,2.3623
						c-0.91553,1.88696-3.32397,2.44995-3.87244,4.65674c-0.00073,0.03638,0.15576,0.16479,0.24438,0.25806
						c-0.45703,0.51929,0.02856,1.74634,1.09314,2.7522c1.06165,1.00342,2.33337,1.40918,2.81616,0.88062l0.24402,0.22632
						c0.40991-0.07251,0.51526-0.42798,0.66309-0.74243l-0.16052,0.17139c2.01245-2.26587,4.79224-4.04053,4.91895-7.7522
						c0.01099-0.50269-0.02588-1.03442,0.06873-1.50757c0.25879-0.16016,0.09961-0.64282-0.3772-1.1001
						c-0.4657-0.44019-1.05017-0.67432-1.31628-0.51685L324.52954,64.70459z" style="" fill="#85421e"></path>
				</g>
				<g>
					<path d="M332.0343,72.04907c-1.12915-0.65576-1.87952-0.41919-2.3949-0.10229c-0.97217,0.573-1.78333,1.24023-2.33069,2.23218
						c-1.03748,1.84814-3.43469,2.23462-4.13745,4.43628c-0.00293,0.03638,0.13843,0.18115,0.22058,0.28027
						c-0.48572,0.49243-0.06238,1.7373,0.95337,2.79248c1.01306,1.05273,2.26782,1.52222,2.77979,1.02197l0.23303,0.23779
						c0.41504-0.05078,0.53918-0.39868,0.70386-0.70337l-0.17004,0.16187c2.13708-2.14722,5.01782-3.76562,5.33899-7.44922
						c0.03735-0.49927,0.0282-1.02979,0.14783-1.49512c0.26794-0.14575,0.13367-0.63403-0.32068-1.11353
						c-0.44409-0.46216-1.01807-0.72534-1.29321-0.58276L332.0343,72.04907z" style="" fill="#85421e"></path>
				</g>
				<g>
					<path d="M339.12085,79.79736c-1.09851-0.71167-1.86353-0.51611-2.39697-0.22803c-1.005,0.51855-1.85339,1.1394-2.4541,2.09644
						c-1.1366,1.78296-3.56165,2.04102-4.38074,4.19287c-0.00488,0.03613,0.12952,0.1875,0.20679,0.29028
						c-0.51282,0.46411-0.15234,1.72363,0.81238,2.82568c0.95984,1.10132,2.20276,1.6272,2.72729,1.16919l0.20886,0.25903
						c0.40979-0.021,0.55884-0.36548,0.7439-0.66333l-0.17896,0.1521c1.13354-1.00806,2.42944-1.87964,3.52429-2.95557
						c1.09802-1.08057,1.99146-2.36377,2.23633-4.18433c0.06335-0.49414,0.08167-1.02222,0.22595-1.47876
						c0.27637-0.13062,0.16687-0.62329-0.26379-1.12402c-0.42139-0.48291-0.98352-0.7749-1.26697-0.64771L339.12085,79.79736z" style="" fill="#85421e"></path>
				</g>
				<g>
					<path d="M345.76746,87.92651c-1.06494-0.76611-1.84241-0.6123-2.39233-0.35449
						c-1.03467,0.46216-1.91772,1.03442-2.56946,1.9541c-1.23181,1.71216-3.67786,1.84009-4.61011,3.93579
						c-0.00671,0.03564,0.12036,0.19312,0.19263,0.29956c-0.53833,0.43408-0.24133,1.70532,0.67004,2.85181
						c0.91821,1.13696,2.03308,1.80396,2.61401,1.35327l0.19641,0.2688c0.41211,0.00098,0.5791-0.3335,0.78003-0.61963
						c-0.06348,0.0481-0.12305,0.09302-0.18726,0.1416c2.36963-1.89307,5.39832-3.16162,6.19299-6.82764
						c0.10779-0.50195,0.14612-1.02051,0.3158-1.46777c0.28381-0.11523,0.19946-0.61084-0.20679-1.13184
						c-0.39758-0.50269-0.94629-0.823-1.23718-0.71143L345.76746,87.92651z" style="" fill="#85421e"></path>
				</g>
				<g>
					<path d="M351.95349,96.41284c-1.02869-0.81909-1.81616-0.70801-2.38086-0.4812
						c-1.06128,0.40405-1.9762,0.92554-2.67688,1.80493c-1.32288,1.63623-3.78271,1.63232-4.82471,3.66602
						c-0.00854,0.03491,0.11096,0.19824,0.17798,0.30786c-0.57495,0.41162-0.29993,1.66309,0.49817,2.89062
						c0.79297,1.22632,1.9281,1.91626,2.51807,1.51001l0.18323,0.27759c0.41321,0.02344,0.59778-0.30029,0.81384-0.57397
						c-0.06616,0.04443-0.1283,0.08594-0.19507,0.13062c2.47266-1.75415,5.57422-2.85156,6.55811-6.45483
						c0.12732-0.4895,0.21497-1.01807,0.41638-1.45947c0.28723-0.09692,0.24573-0.60645-0.11011-1.16309
						c-0.37305-0.52124-0.90686-0.86938-1.20422-0.77417L351.95349,96.41284z" style="" fill="#85421e"></path>
				</g>
				<g>
					<path d="M357.63074,105.24902c-0.93298-0.90503-1.76917-0.8125-2.33423-0.62524
						c-1.08472,0.34399-2.02856,0.81299-2.77588,1.64966c-1.40942,1.55518-3.87598,1.41797-5.02393,3.38379
						c-0.01025,0.03418,0.1012,0.20312,0.16296,0.31567c-0.56824,0.36035-0.44348,1.67236,0.28772,2.94067
						c0.7334,1.26318,1.83667,2.01099,2.44873,1.63916l0.16968,0.28638c0.41321,0.04565,0.6145-0.26611,0.84497-0.52637
						c-0.0686,0.04053-0.13293,0.07837-0.20215,0.11914c2.56787-1.60962,5.73267-2.53101,6.90198-6.06201
						c0.15247-0.47974,0.26721-1.00098,0.49146-1.42896c0.29321-0.08105,0.27698-0.58984-0.0509-1.16333
						c-0.3219-0.55444-0.81592-0.94409-1.11523-0.86768L357.63074,105.24902z" style="" fill="#85421e"></path>
				</g>
				<g>
					<path d="M362.7688,114.41016c-0.89587-0.94897-1.68152-0.93335-2.26477-0.77417
						c-1.09326,0.27637-2.05884,0.68872-2.86377,1.4873c-1.51685,1.48315-3.92151,1.17847-5.21802,3.0957
						c-0.01318,0.03418,0.0813,0.21313,0.13184,0.33154c-0.60461,0.33618-0.552,1.65137,0.12158,2.95117
						c0.67163,1.29688,1.73999,2.10181,2.37207,1.76562l0.15576,0.29419c0.41187,0.06836,0.62939-0.23071,0.87341-0.47705
						c-0.0708,0.03638-0.13721,0.07056-0.20862,0.10742c2.65491-1.45947,5.8728-2.20093,7.22339-5.64966
						c0.17712-0.46899,0.31848-0.98145,0.56494-1.39502c0.29785-0.06421,0.30737-0.57153,0.00793-1.1604
						c-0.29456-0.56958-0.7699-0.98462-1.07373-0.92505L362.7688,114.41016z" style="" fill="#85421e"></path>
				</g>
				<g>
					<path d="M367.38611,123.84424c-0.84961-0.99438-1.63757-1.02246-2.22998-0.89673
						c-1.10938,0.21436-2.0979,0.57104-2.94482,1.32104c-1.5946,1.3916-3.98901,0.95483-5.38477,2.79053
						c-0.01489,0.03345,0.07068,0.21655,0.11548,0.33716c-0.6228,0.30103-0.63611,1.61279-0.02625,2.9436
						c0.60815,1.32764,1.63831,2.18823,2.28845,1.88892l0.14136,0.30127c0.40918,0.09106,0.64209-0.19434,0.89893-0.42578
						c-0.07275,0.03223-0.14087,0.06274-0.21436,0.09521c2.73328-1.30444,5.99414-1.86255,7.52124-5.21948
						c0.20117-0.45703,0.36865-0.95923,0.63647-1.35693c0.30164-0.04736,0.33679-0.55176,0.06653-1.15479
						c-0.26624-0.58325-0.72144-1.02295-1.02893-0.98071L367.38611,123.84424z" style="" fill="#85421e"></path>
				</g>
				<g>
					<path d="M371.46655,133.52344c-0.80066-1.03784-1.5885-1.11035-2.18823-1.01831
						c-1.12207,0.15112-2.13013,0.45068-3.01624,1.1499c-1.66724,1.2959-4.04395,0.72656-5.53418,2.47583
						c-0.0166,0.03247,0.06006,0.21948,0.09875,0.34204c-0.63892,0.26489-0.7179,1.56982-0.17358,2.92871
						c0.56482,1.34766,1.49084,2.28516,2.1521,2.02563l0.1106,0.31348c0.39368,0.11792,0.64941-0.15601,0.92358-0.37402
						c-0.07458,0.02808-0.14441,0.05444-0.21973,0.08301c2.79749-1.14307,6.09302-1.51562,7.85425-4.79492
						c0.22449-0.44385,0.41748-0.93433,0.70581-1.31519c0.30444-0.03027,0.36511-0.53052,0.125-1.146
						c-0.2373-0.59595-0.67102-1.05908-0.98108-1.03442L371.46655,133.52344z" style="" fill="#85421e"></path>
				</g>
				<g>
					<path d="M374.99536,143.41772c-0.74927-1.0791-1.5343-1.1958-2.1394-1.13794c-1.13098,0.08691-2.1554,0.32837-3.07776,0.97437
						c-1.73438,1.19653-4.08557,0.49512-5.66553,2.15308c-0.01819,0.03125,0.04919,0.22192,0.08191,0.34619
						c-0.65308,0.22754-0.79736,1.52246-0.32019,2.90649c0.43323,1.3938,1.29773,2.38525,1.98511,2.1604l0.09509,0.31885
						c0.38818,0.13965,0.65784-0.1189,0.94324-0.32031c-0.07605,0.02368-0.14734,0.04614-0.22412,0.07007
						c2.8689-0.98315,6.14978-1.15601,8.12805-4.33862c0.2616-0.43359,0.50098-0.91797,0.8158-1.2832
						c0.3064-0.01294,0.39233-0.50757,0.18298-1.13428c-0.2074-0.60693-0.61829-1.09302-0.92993-1.08594L374.99536,143.41772z" style="" fill="#85421e"></path>
				</g>
				<g>
					<path d="M377.95972,153.49658c-0.69519-1.11792-1.47498-1.27881-2.0835-1.25562
						c-1.13611,0.02222-2.17346,0.20459-3.12903,0.7959c-1.79578,1.09326-4.11377,0.26099-5.77808,1.82275
						c-0.01978,0.03003,0.03809,0.22388,0.06458,0.34961c-0.68774,0.19531-0.82275,1.45825-0.5177,2.89087
						c0.33398,1.42139,1.1709,2.45337,1.86328,2.27002l0.0791,0.32324c0.38135,0.16138,0.66418-0.08081,0.95984-0.26538
						c-0.07727,0.01929-0.14978,0.03735-0.22778,0.05713c2.9198-0.81641,6.21057-0.80151,8.35059-3.86084
						c0.28467-0.41772,0.54517-0.88574,0.88342-1.23315c0.30347,0.00562,0.4353-0.48779,0.28821-1.13208
						c-0.14355-0.625-0.5542-1.12646-0.85901-1.13916L377.95972,153.49658z" style="" fill="#85421e"></path>
				</g>
				<g>
					<path d="M380.31079,163.7356c-0.56458-1.16895-1.38831-1.36328-1.9823-1.37817
						c-1.13757-0.04248-2.18445,0.08008-3.17004,0.61499c-1.8512,0.9873-4.1283,0.02539-5.87134,1.48706
						c-0.02124,0.02881,0.02686,0.22534,0.04712,0.35205c-0.65491,0.14697-0.9906,1.42554-0.72778,2.86572
						c0.2627,1.43652,1.04797,2.51343,1.74951,2.37012l0.06299,0.3269c0.37329,0.18262,0.66821-0.04272,0.97314-0.20996
						c-0.07825,0.01489-0.15161,0.02905-0.23059,0.04395c2.96082-0.64722,6.25061-0.44458,8.54517-3.3728
						c0.30591-0.40015,0.59009-0.85205,0.94592-1.1792c0.30322,0.02295,0.45996-0.46143,0.34558-1.11206
						c-0.11536-0.63086-0.44849-1.16455-0.75598-1.19385L380.31079,163.7356z" style="" fill="#85421e"></path>
				</g>
				<g>
					<path d="M382.05347,174.09399c-0.5199-1.19604-1.26379-1.44678-1.86621-1.49438
						c-1.1217-0.10938-2.16968-0.04761-3.19788,0.43188c-1.93005,0.8833-4.08716-0.2168-5.95776,1.1499
						c-0.02405,0.02759,0.00391,0.22803,0.01123,0.35645c-0.68262,0.11206-1.08032,1.36816-0.88892,2.82007
						c0.19055,1.448,0.92139,2.56714,1.62988,2.46436l0.04651,0.32959c0.36389,0.20361,0.67004-0.00464,0.98328-0.15381
						c-0.07898,0.01025-0.15295,0.02002-0.23279,0.03052c2.99231-0.47656,6.2699-0.08716,8.71167-2.8772
						c0.32605-0.38159,0.63306-0.81616,1.00525-1.12207c0.30188,0.04004,0.48328-0.43408,0.40186-1.0896
						c-0.08337-0.63574-0.38928-1.18701-0.69519-1.23389L382.05347,174.09399z" style="" fill="#85421e"></path>
				</g>
				<g>
					<path d="M383.21033,184.53125c-0.45874-1.22266-1.18945-1.51538-1.78906-1.59692
						c-1.11536-0.1731-2.16577-0.17114-3.21765,0.24878c-1.97339,0.77173-4.07361-0.44897-6.01196,0.80835
						c-0.02527,0.02637-0.00745,0.22778-0.00659,0.35645c-0.68787,0.073-1.14844,1.3042-1.03027,2.76416
						c0.11768,1.45605,0.79163,2.61475,1.50464,2.55225l0.02991,0.33154c0.35327,0.22388,0.66968,0.03369,0.99011-0.09766
						c-0.07947,0.00586-0.15393,0.01147-0.23401,0.01733c3.01367-0.30591,6.26831,0.26831,8.84949-2.37695
						c0.34497-0.3623,0.67383-0.77832,1.06128-1.0625c0.29968,0.05713,0.50488-0.40552,0.45679-1.06445
						c-0.0509-0.63892-0.32861-1.2063-0.63196-1.27026L383.21033,184.53125z" style="" fill="#85421e"></path>
				</g>
				<g>
					<path d="M383.78052,195.01392c-0.396-1.24609-1.11108-1.57959-1.70593-1.69507
						c-1.10547-0.2356-2.15491-0.29321-3.22681,0.06665c-2.01038,0.65894-4.04675-0.67871-6.04663,0.46704
						c-0.02661,0.0249-0.01892,0.22705-0.02454,0.35571c-0.69092,0.03394-1.21301,1.2373-1.16846,2.7019
						c0.04419,1.46094,0.65881,2.65576,1.37415,2.63354l0.01306,0.33276c0.34167,0.24341,0.66724,0.07104,0.9939-0.04199
						c-0.07959,0.00146-0.1543,0.00269-0.23462,0.00415c3.02539-0.13599,6.2467,0.61987,8.95886-1.875
						c0.36304-0.34204,0.71265-0.73877,1.11401-1.00049c0.29639,0.07397,0.5249-0.37646,0.51038-1.03662
						c-0.01843-0.64038-0.26697-1.22241-0.56677-1.30347L383.78052,195.01392z" style="" fill="#85421e"></path>
				</g>
			</g>
		</g>
		<circle cx="200" cy="200" r="165.61966" style="" fill="#85421e"></circle>
	</g>
</g>


<desc>Created with Snap</desc><defs></defs></g><g><g transform="matrix(1.024,0,0,-1.024,0,0)"><path d="M328 170Q282 271 246 365Q211 460 186 534Q163 410 147 284Q132 158 108 43Q102 17 86 8Q70 0 59 0Q41 0 30 11Q20 22 20 39Q20 62 25 109Q31 157 39 217Q48 277 59 343Q70 409 81 470Q93 532 103 582Q114 632 122 659Q135 705 175 705Q199 705 216 681Q233 658 252 609Q272 561 299 487Q327 413 371 313Q414 413 440 486Q467 560 485 608Q504 657 521 680Q538 704 563 704Q586 704 598 692Q610 681 616 658Q623 630 633 580Q643 531 654 470Q666 410 677 344Q688 278 697 218Q706 158 711 109Q717 61 717 35Q717 19 706 9Q695 0 678 0Q667 0 651 8Q635 17 629 43Q617 100 607 161Q598 222 589 284Q581 347 573 409Q565 472 556 534Q543 494 526 446Q509 398 490 349Q471 301 451 254Q431 207 412 169Q405 156 393 149Q382 143 370 143Q357 143 345 149Q334 156 328 170ZM1029 507Q1086 507 1131 489Q1176 472 1207 440Q1239 408 1256 362Q1273 316 1273 259Q1273 196 1253 146Q1234 96 1199 61Q1165 26 1117 7Q1070 -12 1014 -12Q953 -12 906 9Q860 30 828 66Q797 102 781 149Q765 196 765 248Q765 305 783 352Q802 400 836 434Q871 469 920 488Q969 507 1029 507ZM1018 80Q1059 80 1088 94Q1117 109 1135 133Q1154 157 1162 187Q1171 218 1171 251Q1171 285 1162 314Q1154 344 1136 366Q1119 388 1091 400Q1064 413 1026 413Q987 413 958 400Q929 387 909 364Q890 342 880 311Q870 280 870 244Q870 171 907 125Q945 80 1018 80ZM1597 426Q1560 426 1530 414Q1501 402 1464 378Q1464 357 1464 316Q1464 276 1463 228Q1462 181 1461 135Q1460 89 1457 58Q1455 38 1452 26Q1450 15 1445 9Q1441 3 1433 1Q1426 0 1414 0Q1402 0 1394 1Q1387 3 1382 8Q1377 14 1374 25Q1371 36 1369 55Q1367 73 1365 103Q1364 133 1363 168Q1362 204 1361 240Q1361 277 1361 308Q1361 359 1362 391Q1364 423 1368 448Q1374 490 1384 501Q1394 512 1411 512Q1436 512 1448 498Q1461 484 1464 452Q1501 484 1543 503Q1586 522 1631 522Q1674 522 1709 502Q1745 482 1768 437Q1782 410 1789 377Q1796 345 1799 309Q1800 293 1801 277Q1802 262 1802 244Q1803 227 1803 205Q1803 183 1803 153Q1803 121 1802 93Q1801 65 1796 44Q1792 24 1781 12Q1770 1 1751 1Q1705 1 1703 45Q1703 48 1703 70Q1703 93 1702 123Q1702 153 1701 184Q1701 215 1700 235Q1699 251 1697 269Q1696 288 1693 307Q1691 326 1687 343Q1683 361 1677 375Q1663 408 1642 417Q1621 426 1597 426ZM1926 62Q1924 99 1922 146Q1921 194 1921 251Q1921 322 1922 372Q1923 423 1927 455Q1932 488 1942 503Q1952 519 1970 519Q1987 519 2000 507Q2013 495 2015 455Q2021 350 2021 252Q2021 202 2019 158Q2017 115 2015 63Q2014 39 2010 26Q2007 13 2001 6Q1995 -1 1987 -3Q1980 -4 1970 -4Q1952 -4 1940 8Q1928 21 1926 62ZM1971 700Q1994 700 2013 682Q2033 664 2033 639Q2033 615 2013 597Q1993 580 1968 580Q1947 580 1928 597Q1910 615 1910 641Q1910 665 1928 682Q1947 700 1971 700ZM2819 30Q2813 47 2811 68Q2810 89 2810 120Q2810 142 2810 154Q2811 167 2811 176Q2811 186 2811 195Q2812 205 2812 222Q2812 257 2810 292Q2809 328 2800 356Q2791 385 2772 403Q2753 421 2717 421Q2656 421 2622 363Q2588 305 2581 178Q2579 138 2579 105Q2579 72 2575 48Q2571 25 2560 12Q2550 -1 2526 -1Q2504 -1 2494 10Q2484 22 2479 45Q2475 68 2474 101Q2474 134 2471 178Q2468 226 2461 270Q2455 314 2440 347Q2426 381 2401 401Q2377 421 2339 421Q2303 421 2283 403Q2264 386 2255 357Q2246 329 2244 293Q2243 258 2243 222Q2243 204 2243 195Q2244 187 2244 180Q2244 173 2244 162Q2245 151 2245 128Q2245 95 2243 71Q2242 47 2236 30Q2229 10 2217 5Q2205 1 2195 1Q2164 1 2155 23Q2146 45 2145 87Q2145 110 2144 138Q2144 167 2144 208Q2144 228 2144 243Q2144 258 2144 272Q2145 286 2145 300Q2146 315 2147 334Q2150 395 2169 431Q2188 468 2214 487Q2240 506 2270 511Q2300 517 2325 517Q2379 517 2416 501Q2453 485 2476 459Q2500 433 2511 400Q2523 367 2527 333Q2531 366 2543 398Q2556 431 2580 456Q2605 482 2644 498Q2683 514 2740 514Q2767 514 2795 508Q2824 503 2848 484Q2872 465 2888 429Q2905 394 2908 334Q2909 315 2909 300Q2910 286 2910 272Q2911 258 2911 243Q2911 228 2911 208Q2911 167 2910 138Q2910 110 2910 87Q2910 68 2908 52Q2907 36 2902 25Q2897 14 2887 7Q2878 1 2860 1Q2843 1 2834 7Q2825 14 2819 30ZM3438 -4Q3422 -4 3412 1Q3403 7 3398 16Q3393 25 3391 37Q3389 50 3388 64Q3363 33 3323 12Q3284 -9 3223 -9Q3184 -9 3143 2Q3103 14 3070 42Q3037 71 3016 119Q2995 167 2995 240Q2995 297 3009 347Q3023 397 3051 434Q3080 472 3123 494Q3166 516 3224 516Q3275 516 3315 497Q3355 479 3387 437Q3387 449 3388 461Q3389 474 3393 484Q3398 495 3408 501Q3418 508 3435 508Q3450 508 3463 496Q3476 484 3478 444Q3481 391 3482 349Q3484 307 3484 262Q3484 207 3483 161Q3482 115 3478 63Q3476 40 3472 26Q3469 13 3464 6Q3459 0 3452 -2Q3445 -4 3438 -4ZM3384 250Q3384 302 3368 335Q3353 368 3329 386Q3306 405 3279 412Q3252 419 3229 419Q3193 419 3167 406Q3142 393 3126 370Q3110 348 3102 317Q3095 287 3095 251Q3095 163 3133 121Q3172 79 3238 79Q3277 79 3304 92Q3332 106 3349 129Q3367 152 3375 183Q3384 215 3384 250ZM3606 61Q3602 96 3601 146Q3600 196 3600 267Q3600 337 3600 380Q3601 423 3606 456Q3611 497 3621 509Q3632 521 3649 521Q3661 521 3670 519Q3680 517 3687 510Q3695 504 3699 492Q3703 480 3703 459Q3703 455 3704 451Q3704 447 3704 442Q3705 438 3705 432Q3732 466 3766 490Q3801 514 3845 514Q3904 514 3904 465Q3904 447 3896 435Q3889 423 3875 415Q3862 408 3844 404Q3827 400 3806 396Q3774 390 3746 373Q3718 357 3708 332Q3708 313 3708 304Q3709 295 3709 289Q3710 283 3710 276Q3710 269 3710 254Q3710 203 3708 158Q3706 114 3704 62Q3703 38 3698 25Q3694 12 3687 5Q3681 -2 3673 -4Q3665 -5 3657 -5Q3629 -5 3619 7Q3610 20 3606 61Z" style="" fill="#fdc48b"></path></g></g></g></svg>